<svg width="1440" height="1024" viewBox="0 0 1440 1024" fill="none" xmlns="http://www.w3.org/2000/svg">
<ellipse cx="720" cy="512" rx="543.753" ry="539.065" fill="#88C9EC" fill-opacity="0.3"/>
<path d="M1262.75 512C1262.75 809.157 1019.76 1050.06 720 1050.06C420.238 1050.06 177.247 809.157 177.247 512C177.247 214.843 420.238 -26.0647 720 -26.0647C1019.76 -26.0647 1262.75 214.843 1262.75 512Z" stroke="white" stroke-opacity="0.5" stroke-width="2"/>
<ellipse cx="720" cy="512" rx="448.42" ry="444.554" fill="#88C9EC" fill-opacity="0.3"/>
<path d="M1167.42 512C1167.42 756.96 967.111 955.554 720 955.554C472.888 955.554 272.58 756.96 272.58 512C272.58 267.04 472.888 68.4462 720 68.4462C967.111 68.4462 1167.42 267.04 1167.42 512Z" stroke="white" stroke-opacity="0.5" stroke-width="2"/>
<ellipse cx="720" cy="512" rx="368.978" ry="365.797" fill="#88C9EC" fill-opacity="0.3"/>
<path d="M1087.98 512C1087.98 713.464 923.236 876.797 720 876.797C516.763 876.797 352.022 713.464 352.022 512C352.022 310.537 516.763 147.203 720 147.203C923.236 147.203 1087.98 310.537 1087.98 512Z" stroke="white" stroke-opacity="0.5" stroke-width="2"/>
<ellipse cx="720" cy="512" rx="299.198" ry="296.618" fill="#88C9EC" fill-opacity="0.3"/>
<path d="M1018.2 512C1018.2 675.257 884.698 807.618 720 807.618C555.301 807.618 421.802 675.257 421.802 512C421.802 348.743 555.301 216.382 720 216.382C884.698 216.382 1018.2 348.743 1018.2 512Z" stroke="white" stroke-opacity="0.5" stroke-width="2"/>
<ellipse cx="720" cy="512" rx="216.912" ry="215.042" fill="#88C9EC" fill-opacity="0.3"/>
<path d="M935.912 512C935.912 630.204 839.253 726.042 720 726.042C600.746 726.042 504.087 630.204 504.087 512C504.087 393.796 600.746 297.958 720 297.958C839.253 297.958 935.912 393.796 935.912 512Z" stroke="white" stroke-opacity="0.5" stroke-width="2"/>
<ellipse cx="720" cy="512" rx="117.304" ry="116.293" fill="#88C9EC" fill-opacity="0.5"/>
<path d="M836.304 512C836.304 575.666 784.241 627.293 720 627.293C655.758 627.293 603.696 575.666 603.696 512C603.696 448.334 655.758 396.707 720 396.707C784.241 396.707 836.304 448.334 836.304 512Z" stroke="white" stroke-opacity="0.5" stroke-width="2"/>
<circle cx="3.59829" cy="3.59829" r="3.59829" transform="matrix(1 0 0 -1 -5.62402 856.197)" fill="#BEEABC"/>
<circle cx="3.59829" cy="3.59829" r="3.59829" transform="matrix(1 0 0 -1 26.5728 856.197)" fill="#BEEABC"/>
<circle cx="3.59829" cy="3.59829" r="3.59829" transform="matrix(1 0 0 -1 58.769 856.197)" fill="#BEEABC"/>
<circle cx="3.59829" cy="3.59829" r="3.59829" transform="matrix(1 0 0 -1 90.9658 856.197)" fill="#BEEABC"/>
<circle cx="3.59829" cy="3.59829" r="3.59829" transform="matrix(1 0 0 -1 123.162 856.197)" fill="#BEEABC"/>
<circle cx="3.59829" cy="3.59829" r="3.59829" transform="matrix(1 0 0 -1 155.359 856.197)" fill="#BEEABC"/>
<circle cx="3.59829" cy="3.59829" r="3.59829" transform="matrix(1 0 0 -1 187.556 856.197)" fill="#BEEABC"/>
<circle cx="3.59829" cy="3.59829" r="3.59829" transform="matrix(1 0 0 -1 -5.62402 888.393)" fill="#BEEABC"/>
<circle cx="3.59829" cy="3.59829" r="3.59829" transform="matrix(1 0 0 -1 26.5728 888.393)" fill="#BEEABC"/>
<circle cx="3.59829" cy="3.59829" r="3.59829" transform="matrix(1 0 0 -1 58.769 888.393)" fill="#BEEABC"/>
<circle cx="3.59829" cy="3.59829" r="3.59829" transform="matrix(1 0 0 -1 90.9658 888.393)" fill="#BEEABC"/>
<circle cx="3.59829" cy="3.59829" r="3.59829" transform="matrix(1 0 0 -1 123.162 888.393)" fill="#BEEABC"/>
<circle cx="3.59829" cy="3.59829" r="3.59829" transform="matrix(1 0 0 -1 155.359 888.393)" fill="#BEEABC"/>
<circle cx="3.59829" cy="3.59829" r="3.59829" transform="matrix(1 0 0 -1 187.556 888.393)" fill="#BEEABC"/>
<circle cx="3.59829" cy="3.59829" r="3.59829" transform="matrix(1 0 0 -1 -5.62402 920.59)" fill="#BEEABC"/>
<circle cx="3.59829" cy="3.59829" r="3.59829" transform="matrix(1 0 0 -1 26.5728 920.59)" fill="#BEEABC"/>
<circle cx="3.59829" cy="3.59829" r="3.59829" transform="matrix(1 0 0 -1 58.769 920.59)" fill="#BEEABC"/>
<circle cx="3.59829" cy="3.59829" r="3.59829" transform="matrix(1 0 0 -1 90.9658 920.59)" fill="#BEEABC"/>
<circle cx="3.59829" cy="3.59829" r="3.59829" transform="matrix(1 0 0 -1 123.162 920.59)" fill="#BEEABC"/>
<circle cx="3.59829" cy="3.59829" r="3.59829" transform="matrix(1 0 0 -1 155.359 920.59)" fill="#BEEABC"/>
<circle cx="3.59829" cy="3.59829" r="3.59829" transform="matrix(1 0 0 -1 187.556 920.59)" fill="#BEEABC"/>
<circle cx="3.59829" cy="3.59829" r="3.59829" transform="matrix(1 0 0 -1 -5.62402 952.786)" fill="#BEEABC"/>
<circle cx="3.59829" cy="3.59829" r="3.59829" transform="matrix(1 0 0 -1 26.5728 952.786)" fill="#BEEABC"/>
<circle cx="3.59829" cy="3.59829" r="3.59829" transform="matrix(1 0 0 -1 58.769 952.786)" fill="#BEEABC"/>
<circle cx="3.59829" cy="3.59829" r="3.59829" transform="matrix(1 0 0 -1 90.9658 952.786)" fill="#BEEABC"/>
<circle cx="3.59829" cy="3.59829" r="3.59829" transform="matrix(1 0 0 -1 123.162 952.786)" fill="#BEEABC"/>
<circle cx="3.59829" cy="3.59829" r="3.59829" transform="matrix(1 0 0 -1 155.359 952.786)" fill="#BEEABC"/>
<circle cx="3.59829" cy="3.59829" r="3.59829" transform="matrix(1 0 0 -1 187.556 952.786)" fill="#BEEABC"/>
<circle cx="3.59829" cy="3.59829" r="3.59829" transform="matrix(1 0 0 -1 -5.62402 984.983)" fill="#BEEABC"/>
<circle cx="3.59829" cy="3.59829" r="3.59829" transform="matrix(1 0 0 -1 26.5728 984.983)" fill="#BEEABC"/>
<circle cx="3.59829" cy="3.59829" r="3.59829" transform="matrix(1 0 0 -1 58.769 984.983)" fill="#BEEABC"/>
<circle cx="3.59829" cy="3.59829" r="3.59829" transform="matrix(1 0 0 -1 90.9658 984.983)" fill="#BEEABC"/>
<circle cx="3.59829" cy="3.59829" r="3.59829" transform="matrix(1 0 0 -1 123.162 984.983)" fill="#BEEABC"/>
<circle cx="3.59829" cy="3.59829" r="3.59829" transform="matrix(1 0 0 -1 155.359 984.983)" fill="#BEEABC"/>
<circle cx="3.59829" cy="3.59829" r="3.59829" transform="matrix(1 0 0 -1 187.556 984.983)" fill="#BEEABC"/>
<circle cx="3.59829" cy="3.59829" r="3.59829" transform="matrix(1 0 0 -1 -5.62402 1017.18)" fill="#BEEABC"/>
<circle cx="3.59829" cy="3.59829" r="3.59829" transform="matrix(1 0 0 -1 26.5728 1017.18)" fill="#BEEABC"/>
<circle cx="3.59829" cy="3.59829" r="3.59829" transform="matrix(1 0 0 -1 58.769 1017.18)" fill="#BEEABC"/>
<circle cx="3.59829" cy="3.59829" r="3.59829" transform="matrix(1 0 0 -1 90.9658 1017.18)" fill="#BEEABC"/>
<circle cx="3.59829" cy="3.59829" r="3.59829" transform="matrix(1 0 0 -1 123.162 1017.18)" fill="#BEEABC"/>
<circle cx="3.59829" cy="3.59829" r="3.59829" transform="matrix(1 0 0 -1 155.359 1017.18)" fill="#BEEABC"/>
<circle cx="3.59829" cy="3.59829" r="3.59829" transform="matrix(1 0 0 -1 187.556 1017.18)" fill="#BEEABC"/>
<g filter="url(#filter0_f_120_270)">
<ellipse cx="1338.39" cy="929.138" rx="366.002" ry="362.846" fill="#BEEABC"/>
</g>
<path d="M71.76 146.382V132.382H77.62C78.6467 132.382 79.5867 132.555 80.44 132.902C81.2933 133.235 82.0267 133.715 82.64 134.342C83.2667 134.968 83.7467 135.708 84.08 136.562C84.4133 137.415 84.58 138.355 84.58 139.382C84.58 140.408 84.4133 141.355 84.08 142.222C83.7467 143.075 83.2667 143.815 82.64 144.442C82.0267 145.055 81.2933 145.535 80.44 145.882C79.5867 146.215 78.6467 146.382 77.62 146.382H71.76ZM75.16 144.062L74.7 143.382H77.52C78.08 143.382 78.58 143.288 79.02 143.102C79.46 142.902 79.8333 142.628 80.14 142.282C80.46 141.935 80.7067 141.515 80.88 141.022C81.0533 140.528 81.14 139.982 81.14 139.382C81.14 138.782 81.0533 138.235 80.88 137.742C80.7067 137.248 80.46 136.828 80.14 136.482C79.8333 136.135 79.46 135.868 79.02 135.682C78.58 135.482 78.08 135.382 77.52 135.382H74.64L75.16 134.742V144.062ZM91.4692 146.582C90.3626 146.582 89.3759 146.342 88.5092 145.862C87.6559 145.382 86.9759 144.728 86.4692 143.902C85.9759 143.075 85.7292 142.128 85.7292 141.062C85.7292 139.995 85.9759 139.048 86.4692 138.222C86.9759 137.395 87.6559 136.742 88.5092 136.262C89.3759 135.782 90.3626 135.542 91.4692 135.542C92.5759 135.542 93.5559 135.782 94.4092 136.262C95.2759 136.742 95.9559 137.395 96.4492 138.222C96.9426 139.048 97.1892 139.995 97.1892 141.062C97.1892 142.128 96.9426 143.075 96.4492 143.902C95.9559 144.728 95.2759 145.382 94.4092 145.862C93.5559 146.342 92.5759 146.582 91.4692 146.582ZM91.4692 143.822C91.9492 143.822 92.3759 143.702 92.7492 143.462C93.1226 143.222 93.4159 142.895 93.6292 142.482C93.8426 142.068 93.9426 141.595 93.9292 141.062C93.9426 140.528 93.8426 140.055 93.6292 139.642C93.4159 139.215 93.1226 138.882 92.7492 138.642C92.3759 138.402 91.9492 138.282 91.4692 138.282C90.9892 138.282 90.5559 138.402 90.1692 138.642C89.7959 138.882 89.5026 139.215 89.2892 139.642C89.0759 140.055 88.9759 140.528 88.9892 141.062C88.9759 141.595 89.0759 142.068 89.2892 142.482C89.5026 142.895 89.7959 143.222 90.1692 143.462C90.5559 143.702 90.9892 143.822 91.4692 143.822ZM103.542 146.582C102.515 146.582 101.595 146.342 100.782 145.862C99.9684 145.382 99.3217 144.728 98.8417 143.902C98.3751 143.062 98.1417 142.115 98.1417 141.062C98.1417 140.008 98.3751 139.068 98.8417 138.242C99.3217 137.402 99.9684 136.742 100.782 136.262C101.595 135.782 102.515 135.542 103.542 135.542C104.488 135.542 105.355 135.708 106.142 136.042C106.942 136.375 107.575 136.842 108.042 137.442L106.302 139.522C106.115 139.308 105.895 139.108 105.642 138.922C105.388 138.735 105.108 138.588 104.802 138.482C104.495 138.375 104.175 138.322 103.842 138.322C103.335 138.322 102.888 138.442 102.502 138.682C102.115 138.908 101.815 139.228 101.602 139.642C101.388 140.055 101.282 140.528 101.282 141.062C101.282 141.568 101.388 142.028 101.602 142.442C101.828 142.855 102.135 143.182 102.522 143.422C102.908 143.662 103.348 143.782 103.842 143.782C104.188 143.782 104.508 143.742 104.802 143.662C105.095 143.568 105.362 143.435 105.602 143.262C105.855 143.088 106.088 142.875 106.302 142.622L108.022 144.722C107.568 145.295 106.935 145.748 106.122 146.082C105.322 146.415 104.462 146.582 103.542 146.582ZM112.46 143.262L111.28 140.862L116.24 135.762H120.46L112.46 143.262ZM109.38 146.382V131.582H112.58V146.382H109.38ZM116.58 146.382L112.84 141.542L115.1 139.782L120.36 146.382H116.58ZM126.11 146.582C124.937 146.582 123.917 146.348 123.05 145.882C122.184 145.402 121.51 144.755 121.03 143.942C120.55 143.115 120.31 142.175 120.31 141.122C120.31 140.308 120.444 139.562 120.71 138.882C120.977 138.202 121.35 137.615 121.83 137.122C122.31 136.615 122.877 136.228 123.53 135.962C124.197 135.682 124.924 135.542 125.71 135.542C126.457 135.542 127.137 135.675 127.75 135.942C128.377 136.208 128.917 136.582 129.37 137.062C129.824 137.542 130.17 138.108 130.41 138.762C130.65 139.415 130.757 140.128 130.73 140.902L130.71 141.762H122.25L121.79 139.962H128.11L127.77 140.342V139.942C127.744 139.608 127.637 139.315 127.45 139.062C127.277 138.795 127.044 138.588 126.75 138.442C126.457 138.295 126.124 138.222 125.75 138.222C125.23 138.222 124.784 138.328 124.41 138.542C124.05 138.742 123.777 139.042 123.59 139.442C123.404 139.828 123.31 140.308 123.31 140.882C123.31 141.468 123.43 141.982 123.67 142.422C123.924 142.848 124.284 143.182 124.75 143.422C125.23 143.662 125.797 143.782 126.45 143.782C126.904 143.782 127.304 143.715 127.65 143.582C128.01 143.448 128.397 143.222 128.81 142.902L130.31 145.022C129.897 145.382 129.457 145.675 128.99 145.902C128.524 146.128 128.044 146.295 127.55 146.402C127.07 146.522 126.59 146.582 126.11 146.582ZM132.369 146.382V135.762H135.409L135.549 139.222L134.949 138.562C135.109 137.988 135.369 137.475 135.729 137.022C136.103 136.568 136.536 136.208 137.029 135.942C137.523 135.675 138.049 135.542 138.609 135.542C138.849 135.542 139.069 135.562 139.269 135.602C139.483 135.642 139.676 135.688 139.849 135.742L138.969 139.282C138.823 139.188 138.623 139.115 138.369 139.062C138.129 138.995 137.876 138.962 137.609 138.962C137.316 138.962 137.043 139.015 136.789 139.122C136.536 139.215 136.323 139.355 136.149 139.542C135.976 139.728 135.836 139.948 135.729 140.202C135.636 140.455 135.589 140.742 135.589 141.062V146.382H132.369ZM141.251 146.382V135.762H144.451V146.382H141.251ZM142.851 133.662C142.251 133.662 141.777 133.522 141.431 133.242C141.097 132.948 140.931 132.535 140.931 132.002C140.931 131.522 141.104 131.128 141.451 130.822C141.797 130.515 142.264 130.362 142.851 130.362C143.451 130.362 143.917 130.508 144.251 130.802C144.584 131.082 144.751 131.482 144.751 132.002C144.751 132.495 144.577 132.895 144.231 133.202C143.897 133.508 143.437 133.662 142.851 133.662ZM150.637 146.582C149.597 146.582 148.677 146.415 147.877 146.082C147.091 145.748 146.464 145.302 145.997 144.742L147.937 143.062C148.351 143.475 148.817 143.782 149.337 143.982C149.857 144.168 150.351 144.262 150.817 144.262C151.004 144.262 151.171 144.242 151.317 144.202C151.464 144.162 151.584 144.108 151.677 144.042C151.784 143.962 151.864 143.875 151.917 143.782C151.971 143.675 151.997 143.555 151.997 143.422C151.997 143.155 151.877 142.948 151.637 142.802C151.517 142.735 151.317 142.655 151.037 142.562C150.757 142.468 150.397 142.362 149.957 142.242C149.331 142.082 148.784 141.895 148.317 141.682C147.864 141.455 147.491 141.195 147.197 140.902C146.931 140.622 146.724 140.315 146.577 139.982C146.431 139.635 146.357 139.248 146.357 138.822C146.357 138.328 146.471 137.882 146.697 137.482C146.937 137.082 147.251 136.735 147.637 136.442C148.037 136.148 148.491 135.928 148.997 135.782C149.517 135.622 150.051 135.542 150.597 135.542C151.184 135.542 151.744 135.608 152.277 135.742C152.811 135.875 153.304 136.062 153.757 136.302C154.224 136.542 154.637 136.828 154.997 137.162L153.317 139.042C153.077 138.815 152.804 138.615 152.497 138.442C152.204 138.255 151.897 138.108 151.577 138.002C151.257 137.895 150.964 137.842 150.697 137.842C150.497 137.842 150.317 137.862 150.157 137.902C150.011 137.928 149.884 137.982 149.777 138.062C149.671 138.128 149.591 138.215 149.537 138.322C149.484 138.415 149.457 138.528 149.457 138.662C149.457 138.795 149.491 138.922 149.557 139.042C149.637 139.162 149.744 139.262 149.877 139.342C150.011 139.422 150.224 139.515 150.517 139.622C150.811 139.715 151.211 139.835 151.717 139.982C152.344 140.155 152.884 140.348 153.337 140.562C153.791 140.775 154.151 141.028 154.417 141.322C154.631 141.548 154.791 141.815 154.897 142.122C155.004 142.415 155.057 142.735 155.057 143.082C155.057 143.762 154.864 144.368 154.477 144.902C154.104 145.422 153.584 145.835 152.917 146.142C152.251 146.435 151.491 146.582 150.637 146.582ZM161.62 146.582C160.447 146.582 159.427 146.348 158.56 145.882C157.693 145.402 157.02 144.755 156.54 143.942C156.06 143.115 155.82 142.175 155.82 141.122C155.82 140.308 155.953 139.562 156.22 138.882C156.487 138.202 156.86 137.615 157.34 137.122C157.82 136.615 158.387 136.228 159.04 135.962C159.707 135.682 160.433 135.542 161.22 135.542C161.967 135.542 162.647 135.675 163.26 135.942C163.887 136.208 164.427 136.582 164.88 137.062C165.333 137.542 165.68 138.108 165.92 138.762C166.16 139.415 166.267 140.128 166.24 140.902L166.22 141.762H157.76L157.3 139.962H163.62L163.28 140.342V139.942C163.253 139.608 163.147 139.315 162.96 139.062C162.787 138.795 162.553 138.588 162.26 138.442C161.967 138.295 161.633 138.222 161.26 138.222C160.74 138.222 160.293 138.328 159.92 138.542C159.56 138.742 159.287 139.042 159.1 139.442C158.913 139.828 158.82 140.308 158.82 140.882C158.82 141.468 158.94 141.982 159.18 142.422C159.433 142.848 159.793 143.182 160.26 143.422C160.74 143.662 161.307 143.782 161.96 143.782C162.413 143.782 162.813 143.715 163.16 143.582C163.52 143.448 163.907 143.222 164.32 142.902L165.82 145.022C165.407 145.382 164.967 145.675 164.5 145.902C164.033 146.128 163.553 146.295 163.06 146.402C162.58 146.522 162.1 146.582 161.62 146.582ZM171.899 146.602C170.979 146.602 170.159 146.368 169.439 145.902C168.732 145.422 168.172 144.768 167.759 143.942C167.345 143.102 167.139 142.148 167.139 141.082C167.139 140.015 167.345 139.068 167.759 138.242C168.172 137.402 168.739 136.742 169.459 136.262C170.179 135.782 171.005 135.542 171.939 135.542C172.419 135.542 172.879 135.615 173.319 135.762C173.759 135.908 174.159 136.108 174.519 136.362C174.879 136.615 175.172 136.908 175.399 137.242C175.625 137.562 175.759 137.895 175.799 138.242L175.039 138.422V131.582H178.259V146.382H175.279L175.099 143.962L175.739 144.062C175.699 144.395 175.565 144.715 175.339 145.022C175.125 145.328 174.845 145.602 174.499 145.842C174.152 146.068 173.752 146.248 173.299 146.382C172.859 146.528 172.392 146.602 171.899 146.602ZM172.719 143.942C173.212 143.942 173.639 143.822 173.999 143.582C174.359 143.342 174.632 143.008 174.819 142.582C175.019 142.155 175.119 141.655 175.119 141.082C175.119 140.495 175.019 139.988 174.819 139.562C174.632 139.135 174.359 138.802 173.999 138.562C173.639 138.322 173.212 138.202 172.719 138.202C172.225 138.202 171.799 138.322 171.439 138.562C171.092 138.802 170.819 139.135 170.619 139.562C170.419 139.988 170.319 140.495 170.319 141.082C170.319 141.655 170.419 142.155 170.619 142.582C170.819 143.008 171.092 143.342 171.439 143.582C171.799 143.822 172.225 143.942 172.719 143.942ZM71.76 171.382V157.382H78.06C78.9533 157.382 79.76 157.575 80.48 157.962C81.2133 158.348 81.7867 158.882 82.2 159.562C82.6133 160.228 82.82 160.988 82.82 161.842C82.82 162.722 82.6133 163.515 82.2 164.222C81.7867 164.915 81.22 165.462 80.5 165.862C79.78 166.262 78.9667 166.462 78.06 166.462H75V171.382H71.76ZM79.52 171.382L75.96 165.062L79.44 164.562L83.4 171.382H79.52ZM75 163.862H77.76C78.1067 163.862 78.4067 163.788 78.66 163.642C78.9267 163.482 79.1267 163.262 79.26 162.982C79.4067 162.702 79.48 162.382 79.48 162.022C79.48 161.662 79.4 161.348 79.24 161.082C79.08 160.802 78.8467 160.588 78.54 160.442C78.2467 160.295 77.8867 160.222 77.46 160.222H75V163.862ZM89.7323 171.582C88.559 171.582 87.539 171.348 86.6723 170.882C85.8057 170.402 85.1323 169.755 84.6523 168.942C84.1723 168.115 83.9323 167.175 83.9323 166.122C83.9323 165.308 84.0657 164.562 84.3323 163.882C84.599 163.202 84.9723 162.615 85.4523 162.122C85.9323 161.615 86.499 161.228 87.1523 160.962C87.819 160.682 88.5457 160.542 89.3323 160.542C90.079 160.542 90.759 160.675 91.3723 160.942C91.999 161.208 92.539 161.582 92.9923 162.062C93.4457 162.542 93.7923 163.108 94.0323 163.762C94.2723 164.415 94.379 165.128 94.3523 165.902L94.3323 166.762H85.8723L85.4123 164.962H91.7323L91.3923 165.342V164.942C91.3657 164.608 91.259 164.315 91.0723 164.062C90.899 163.795 90.6657 163.588 90.3723 163.442C90.079 163.295 89.7457 163.222 89.3723 163.222C88.8523 163.222 88.4057 163.328 88.0323 163.542C87.6723 163.742 87.399 164.042 87.2123 164.442C87.0257 164.828 86.9323 165.308 86.9323 165.882C86.9323 166.468 87.0523 166.982 87.2923 167.422C87.5457 167.848 87.9057 168.182 88.3723 168.422C88.8523 168.662 89.419 168.782 90.0723 168.782C90.5257 168.782 90.9257 168.715 91.2723 168.582C91.6323 168.448 92.019 168.222 92.4323 167.902L93.9323 170.022C93.519 170.382 93.079 170.675 92.6123 170.902C92.1457 171.128 91.6657 171.295 91.1723 171.402C90.6923 171.522 90.2123 171.582 89.7323 171.582ZM95.9911 175.782V160.762H99.0311L99.1511 163.142L98.5511 162.962C98.6444 162.522 98.8711 162.122 99.2311 161.762C99.5911 161.402 100.044 161.115 100.591 160.902C101.151 160.675 101.738 160.562 102.351 160.562C103.258 160.562 104.064 160.802 104.771 161.282C105.478 161.748 106.031 162.395 106.431 163.222C106.844 164.035 107.051 164.982 107.051 166.062C107.051 167.128 106.844 168.075 106.431 168.902C106.031 169.728 105.471 170.382 104.751 170.862C104.044 171.328 103.231 171.562 102.311 171.562C101.711 171.562 101.138 171.448 100.591 171.222C100.044 170.995 99.5844 170.688 99.2111 170.302C98.8378 169.915 98.5911 169.495 98.4711 169.042L99.2111 168.762V175.782H95.9911ZM101.531 168.862C102.011 168.862 102.431 168.748 102.791 168.522C103.151 168.282 103.431 167.955 103.631 167.542C103.831 167.128 103.931 166.635 103.931 166.062C103.931 165.502 103.831 165.015 103.631 164.602C103.431 164.175 103.151 163.848 102.791 163.622C102.444 163.382 102.024 163.262 101.531 163.262C101.038 163.262 100.611 163.375 100.251 163.602C99.8911 163.828 99.6111 164.155 99.4111 164.582C99.2111 165.008 99.1111 165.502 99.1111 166.062C99.1111 166.635 99.2111 167.128 99.4111 167.542C99.6111 167.955 99.8911 168.282 100.251 168.522C100.611 168.748 101.038 168.862 101.531 168.862ZM113.775 171.582C112.668 171.582 111.681 171.342 110.815 170.862C109.961 170.382 109.281 169.728 108.775 168.902C108.281 168.075 108.035 167.128 108.035 166.062C108.035 164.995 108.281 164.048 108.775 163.222C109.281 162.395 109.961 161.742 110.815 161.262C111.681 160.782 112.668 160.542 113.775 160.542C114.881 160.542 115.861 160.782 116.715 161.262C117.581 161.742 118.261 162.395 118.755 163.222C119.248 164.048 119.495 164.995 119.495 166.062C119.495 167.128 119.248 168.075 118.755 168.902C118.261 169.728 117.581 170.382 116.715 170.862C115.861 171.342 114.881 171.582 113.775 171.582ZM113.775 168.822C114.255 168.822 114.681 168.702 115.055 168.462C115.428 168.222 115.721 167.895 115.935 167.482C116.148 167.068 116.248 166.595 116.235 166.062C116.248 165.528 116.148 165.055 115.935 164.642C115.721 164.215 115.428 163.882 115.055 163.642C114.681 163.402 114.255 163.282 113.775 163.282C113.295 163.282 112.861 163.402 112.475 163.642C112.101 163.882 111.808 164.215 111.595 164.642C111.381 165.055 111.281 165.528 111.295 166.062C111.281 166.595 111.381 167.068 111.595 167.482C111.808 167.895 112.101 168.222 112.475 168.462C112.861 168.702 113.295 168.822 113.775 168.822ZM124.767 171.582C123.727 171.582 122.807 171.415 122.007 171.082C121.221 170.748 120.594 170.302 120.127 169.742L122.067 168.062C122.481 168.475 122.947 168.782 123.467 168.982C123.987 169.168 124.481 169.262 124.947 169.262C125.134 169.262 125.301 169.242 125.447 169.202C125.594 169.162 125.714 169.108 125.807 169.042C125.914 168.962 125.994 168.875 126.047 168.782C126.101 168.675 126.127 168.555 126.127 168.422C126.127 168.155 126.007 167.948 125.767 167.802C125.647 167.735 125.447 167.655 125.167 167.562C124.887 167.468 124.527 167.362 124.087 167.242C123.461 167.082 122.914 166.895 122.447 166.682C121.994 166.455 121.621 166.195 121.327 165.902C121.061 165.622 120.854 165.315 120.707 164.982C120.561 164.635 120.487 164.248 120.487 163.822C120.487 163.328 120.601 162.882 120.827 162.482C121.067 162.082 121.381 161.735 121.767 161.442C122.167 161.148 122.621 160.928 123.127 160.782C123.647 160.622 124.181 160.542 124.727 160.542C125.314 160.542 125.874 160.608 126.407 160.742C126.941 160.875 127.434 161.062 127.887 161.302C128.354 161.542 128.767 161.828 129.127 162.162L127.447 164.042C127.207 163.815 126.934 163.615 126.627 163.442C126.334 163.255 126.027 163.108 125.707 163.002C125.387 162.895 125.094 162.842 124.827 162.842C124.627 162.842 124.447 162.862 124.287 162.902C124.141 162.928 124.014 162.982 123.907 163.062C123.801 163.128 123.721 163.215 123.667 163.322C123.614 163.415 123.587 163.528 123.587 163.662C123.587 163.795 123.621 163.922 123.687 164.042C123.767 164.162 123.874 164.262 124.007 164.342C124.141 164.422 124.354 164.515 124.647 164.622C124.941 164.715 125.341 164.835 125.847 164.982C126.474 165.155 127.014 165.348 127.467 165.562C127.921 165.775 128.281 166.028 128.547 166.322C128.761 166.548 128.921 166.815 129.027 167.122C129.134 167.415 129.187 167.735 129.187 168.082C129.187 168.762 128.994 169.368 128.607 169.902C128.234 170.422 127.714 170.835 127.047 171.142C126.381 171.435 125.621 171.582 124.767 171.582ZM130.87 171.382V160.762H134.07V171.382H130.87ZM132.47 158.662C131.87 158.662 131.396 158.522 131.05 158.242C130.716 157.948 130.55 157.535 130.55 157.002C130.55 156.522 130.723 156.128 131.07 155.822C131.416 155.515 131.883 155.362 132.47 155.362C133.07 155.362 133.536 155.508 133.87 155.802C134.203 156.082 134.37 156.482 134.37 157.002C134.37 157.495 134.196 157.895 133.85 158.202C133.516 158.508 133.056 158.662 132.47 158.662ZM137.556 171.382V158.082H140.756V171.382H137.556ZM135.676 163.562V160.762H142.816V163.562H135.676ZM149.147 171.582C148.041 171.582 147.054 171.342 146.187 170.862C145.334 170.382 144.654 169.728 144.147 168.902C143.654 168.075 143.407 167.128 143.407 166.062C143.407 164.995 143.654 164.048 144.147 163.222C144.654 162.395 145.334 161.742 146.187 161.262C147.054 160.782 148.041 160.542 149.147 160.542C150.254 160.542 151.234 160.782 152.087 161.262C152.954 161.742 153.634 162.395 154.127 163.222C154.621 164.048 154.867 164.995 154.867 166.062C154.867 167.128 154.621 168.075 154.127 168.902C153.634 169.728 152.954 170.382 152.087 170.862C151.234 171.342 150.254 171.582 149.147 171.582ZM149.147 168.822C149.627 168.822 150.054 168.702 150.427 168.462C150.801 168.222 151.094 167.895 151.307 167.482C151.521 167.068 151.621 166.595 151.607 166.062C151.621 165.528 151.521 165.055 151.307 164.642C151.094 164.215 150.801 163.882 150.427 163.642C150.054 163.402 149.627 163.282 149.147 163.282C148.667 163.282 148.234 163.402 147.847 163.642C147.474 163.882 147.181 164.215 146.967 164.642C146.754 165.055 146.654 165.528 146.667 166.062C146.654 166.595 146.754 167.068 146.967 167.482C147.181 167.895 147.474 168.222 147.847 168.462C148.234 168.702 148.667 168.822 149.147 168.822ZM156.56 171.382V160.762H159.6L159.74 164.222L159.14 163.562C159.3 162.988 159.56 162.475 159.92 162.022C160.293 161.568 160.727 161.208 161.22 160.942C161.713 160.675 162.24 160.542 162.8 160.542C163.04 160.542 163.26 160.562 163.46 160.602C163.673 160.642 163.867 160.688 164.04 160.742L163.16 164.282C163.013 164.188 162.813 164.115 162.56 164.062C162.32 163.995 162.067 163.962 161.8 163.962C161.507 163.962 161.233 164.015 160.98 164.122C160.727 164.215 160.513 164.355 160.34 164.542C160.167 164.728 160.027 164.948 159.92 165.202C159.827 165.455 159.78 165.742 159.78 166.062V171.382H156.56ZM166.601 175.982L169.021 170.282L169.061 171.922L163.941 160.762H167.561L169.801 166.102C169.921 166.368 170.035 166.655 170.141 166.962C170.248 167.268 170.328 167.562 170.381 167.842L169.941 168.102C170.021 167.902 170.108 167.655 170.201 167.362C170.308 167.055 170.421 166.728 170.541 166.382L172.501 160.762H176.141L171.621 171.382L169.781 175.982H166.601ZM80.44 196.382V182.382H83.84V196.382H80.44ZM71.76 196.382V182.382H75.16V196.382H71.76ZM73.08 190.922L73.1 187.882H82.24V190.922H73.08ZM91.6059 196.582C90.4993 196.582 89.5126 196.342 88.6459 195.862C87.7926 195.382 87.1126 194.728 86.6059 193.902C86.1126 193.075 85.8659 192.128 85.8659 191.062C85.8659 189.995 86.1126 189.048 86.6059 188.222C87.1126 187.395 87.7926 186.742 88.6459 186.262C89.5126 185.782 90.4993 185.542 91.6059 185.542C92.7126 185.542 93.6926 185.782 94.5459 186.262C95.4126 186.742 96.0926 187.395 96.5859 188.222C97.0793 189.048 97.3259 189.995 97.3259 191.062C97.3259 192.128 97.0793 193.075 96.5859 193.902C96.0926 194.728 95.4126 195.382 94.5459 195.862C93.6926 196.342 92.7126 196.582 91.6059 196.582ZM91.6059 193.822C92.0859 193.822 92.5126 193.702 92.8859 193.462C93.2593 193.222 93.5526 192.895 93.7659 192.482C93.9793 192.068 94.0793 191.595 94.0659 191.062C94.0793 190.528 93.9793 190.055 93.7659 189.642C93.5526 189.215 93.2593 188.882 92.8859 188.642C92.5126 188.402 92.0859 188.282 91.6059 188.282C91.1259 188.282 90.6926 188.402 90.3059 188.642C89.9326 188.882 89.6393 189.215 89.4259 189.642C89.2126 190.055 89.1126 190.528 89.1259 191.062C89.1126 191.595 89.2126 192.068 89.4259 192.482C89.6393 192.895 89.9326 193.222 90.3059 193.462C90.6926 193.702 91.1259 193.822 91.6059 193.822ZM102.598 196.582C101.558 196.582 100.638 196.415 99.8384 196.082C99.0518 195.748 98.4251 195.302 97.9584 194.742L99.8984 193.062C100.312 193.475 100.778 193.782 101.298 193.982C101.818 194.168 102.312 194.262 102.778 194.262C102.965 194.262 103.132 194.242 103.278 194.202C103.425 194.162 103.545 194.108 103.638 194.042C103.745 193.962 103.825 193.875 103.878 193.782C103.932 193.675 103.958 193.555 103.958 193.422C103.958 193.155 103.838 192.948 103.598 192.802C103.478 192.735 103.278 192.655 102.998 192.562C102.718 192.468 102.358 192.362 101.918 192.242C101.292 192.082 100.745 191.895 100.278 191.682C99.8251 191.455 99.4518 191.195 99.1584 190.902C98.8918 190.622 98.6851 190.315 98.5384 189.982C98.3918 189.635 98.3184 189.248 98.3184 188.822C98.3184 188.328 98.4318 187.882 98.6584 187.482C98.8984 187.082 99.2118 186.735 99.5984 186.442C99.9984 186.148 100.452 185.928 100.958 185.782C101.478 185.622 102.012 185.542 102.558 185.542C103.145 185.542 103.705 185.608 104.238 185.742C104.772 185.875 105.265 186.062 105.718 186.302C106.185 186.542 106.598 186.828 106.958 187.162L105.278 189.042C105.038 188.815 104.765 188.615 104.458 188.442C104.165 188.255 103.858 188.108 103.538 188.002C103.218 187.895 102.925 187.842 102.658 187.842C102.458 187.842 102.278 187.862 102.118 187.902C101.972 187.928 101.845 187.982 101.738 188.062C101.632 188.128 101.552 188.215 101.498 188.322C101.445 188.415 101.418 188.528 101.418 188.662C101.418 188.795 101.452 188.922 101.518 189.042C101.598 189.162 101.705 189.262 101.838 189.342C101.972 189.422 102.185 189.515 102.478 189.622C102.772 189.715 103.172 189.835 103.678 189.982C104.305 190.155 104.845 190.348 105.298 190.562C105.752 190.775 106.112 191.028 106.378 191.322C106.592 191.548 106.752 191.815 106.858 192.122C106.965 192.415 107.018 192.735 107.018 193.082C107.018 193.762 106.825 194.368 106.438 194.902C106.065 195.422 105.545 195.835 104.878 196.142C104.212 196.435 103.452 196.582 102.598 196.582ZM109.401 196.382V183.082H112.601V196.382H109.401ZM107.521 188.562V185.762H114.661V188.562H107.521ZM116.27 196.382V185.762H119.47V196.382H116.27ZM117.87 183.662C117.27 183.662 116.796 183.522 116.45 183.242C116.116 182.948 115.95 182.535 115.95 182.002C115.95 181.522 116.123 181.128 116.47 180.822C116.816 180.515 117.283 180.362 117.87 180.362C118.47 180.362 118.936 180.508 119.27 180.802C119.603 181.082 119.77 181.482 119.77 182.002C119.77 182.495 119.596 182.895 119.25 183.202C118.916 183.508 118.456 183.662 117.87 183.662ZM122.076 196.382V185.762H125.116L125.216 187.922L124.576 188.162C124.723 187.682 124.983 187.248 125.356 186.862C125.743 186.462 126.203 186.142 126.736 185.902C127.27 185.662 127.83 185.542 128.416 185.542C129.216 185.542 129.89 185.708 130.436 186.042C130.983 186.362 131.396 186.848 131.676 187.502C131.956 188.142 132.096 188.928 132.096 189.862V196.382H128.876V190.122C128.876 189.695 128.816 189.342 128.696 189.062C128.576 188.782 128.39 188.575 128.136 188.442C127.896 188.295 127.596 188.228 127.236 188.242C126.956 188.242 126.696 188.288 126.456 188.382C126.216 188.462 126.01 188.588 125.836 188.762C125.663 188.922 125.523 189.108 125.416 189.322C125.323 189.535 125.276 189.768 125.276 190.022V196.382H123.696C123.323 196.382 123.003 196.382 122.736 196.382C122.47 196.382 122.25 196.382 122.076 196.382ZM139.232 200.982C138.365 200.982 137.498 200.855 136.632 200.602C135.778 200.348 135.085 200.022 134.552 199.622L135.672 197.382C135.952 197.568 136.258 197.728 136.592 197.862C136.938 198.008 137.298 198.122 137.672 198.202C138.045 198.282 138.425 198.322 138.812 198.322C139.492 198.322 140.045 198.222 140.472 198.022C140.898 197.822 141.218 197.515 141.432 197.102C141.645 196.702 141.752 196.195 141.752 195.582V193.802L142.372 193.902C142.278 194.342 142.045 194.742 141.672 195.102C141.312 195.462 140.865 195.755 140.332 195.982C139.798 196.195 139.232 196.302 138.632 196.302C137.672 196.302 136.812 196.082 136.052 195.642C135.305 195.188 134.712 194.568 134.272 193.782C133.845 192.982 133.632 192.062 133.632 191.022C133.632 189.955 133.845 189.015 134.272 188.202C134.698 187.375 135.285 186.728 136.032 186.262C136.778 185.782 137.618 185.542 138.552 185.542C138.952 185.542 139.332 185.588 139.692 185.682C140.065 185.775 140.405 185.902 140.712 186.062C141.032 186.208 141.312 186.388 141.552 186.602C141.805 186.802 142.005 187.022 142.152 187.262C142.312 187.502 142.418 187.748 142.472 188.002L141.812 188.162L141.932 185.762H144.972V195.522C144.972 196.388 144.838 197.155 144.572 197.822C144.318 198.502 143.938 199.075 143.432 199.542C142.938 200.022 142.338 200.382 141.632 200.622C140.925 200.862 140.125 200.982 139.232 200.982ZM139.312 193.822C139.832 193.822 140.278 193.708 140.652 193.482C141.038 193.242 141.332 192.915 141.532 192.502C141.745 192.088 141.852 191.602 141.852 191.042C141.852 190.482 141.745 189.995 141.532 189.582C141.332 189.155 141.038 188.828 140.652 188.602C140.278 188.362 139.832 188.242 139.312 188.242C138.805 188.242 138.365 188.362 137.992 188.602C137.618 188.828 137.325 189.155 137.112 189.582C136.912 189.995 136.812 190.482 136.812 191.042C136.812 191.602 136.912 192.088 137.112 192.502C137.325 192.915 137.618 193.242 137.992 193.482C138.365 193.708 138.805 193.822 139.312 193.822ZM157.277 196.562C156.383 196.562 155.583 196.328 154.877 195.862C154.183 195.382 153.63 194.728 153.217 193.902C152.803 193.062 152.597 192.115 152.597 191.062C152.597 189.982 152.803 189.028 153.217 188.202C153.63 187.375 154.197 186.728 154.917 186.262C155.637 185.782 156.457 185.542 157.377 185.542C157.883 185.542 158.343 185.615 158.757 185.762C159.183 185.908 159.557 186.115 159.877 186.382C160.197 186.635 160.47 186.935 160.697 187.282C160.923 187.615 161.09 187.975 161.197 188.362L160.537 188.282V185.762H163.717V196.382H160.477V193.822L161.197 193.802C161.09 194.175 160.917 194.528 160.677 194.862C160.437 195.195 160.143 195.488 159.797 195.742C159.45 195.995 159.063 196.195 158.637 196.342C158.21 196.488 157.757 196.562 157.277 196.562ZM158.157 193.862C158.65 193.862 159.077 193.748 159.437 193.522C159.797 193.295 160.077 192.975 160.277 192.562C160.477 192.135 160.577 191.635 160.577 191.062C160.577 190.488 160.477 189.995 160.277 189.582C160.077 189.155 159.797 188.828 159.437 188.602C159.077 188.362 158.65 188.242 158.157 188.242C157.677 188.242 157.257 188.362 156.897 188.602C156.55 188.828 156.277 189.155 156.077 189.582C155.877 189.995 155.777 190.488 155.777 191.062C155.777 191.635 155.877 192.135 156.077 192.562C156.277 192.975 156.55 193.295 156.897 193.522C157.257 193.748 157.677 193.862 158.157 193.862ZM166.14 196.382V185.762H169.18L169.28 187.922L168.64 188.162C168.787 187.682 169.047 187.248 169.42 186.862C169.807 186.462 170.267 186.142 170.8 185.902C171.334 185.662 171.894 185.542 172.48 185.542C173.28 185.542 173.954 185.708 174.5 186.042C175.047 186.362 175.46 186.848 175.74 187.502C176.02 188.142 176.16 188.928 176.16 189.862V196.382H172.94V190.122C172.94 189.695 172.88 189.342 172.76 189.062C172.64 188.782 172.454 188.575 172.2 188.442C171.96 188.295 171.66 188.228 171.3 188.242C171.02 188.242 170.76 188.288 170.52 188.382C170.28 188.462 170.074 188.588 169.9 188.762C169.727 188.922 169.587 189.108 169.48 189.322C169.387 189.535 169.34 189.768 169.34 190.022V196.382H167.76C167.387 196.382 167.067 196.382 166.8 196.382C166.534 196.382 166.314 196.382 166.14 196.382ZM182.456 196.602C181.536 196.602 180.716 196.368 179.996 195.902C179.289 195.422 178.729 194.768 178.316 193.942C177.902 193.102 177.696 192.148 177.696 191.082C177.696 190.015 177.902 189.068 178.316 188.242C178.729 187.402 179.296 186.742 180.016 186.262C180.736 185.782 181.562 185.542 182.496 185.542C182.976 185.542 183.436 185.615 183.876 185.762C184.316 185.908 184.716 186.108 185.076 186.362C185.436 186.615 185.729 186.908 185.956 187.242C186.182 187.562 186.316 187.895 186.356 188.242L185.596 188.422V181.582H188.816V196.382H185.836L185.656 193.962L186.296 194.062C186.256 194.395 186.122 194.715 185.896 195.022C185.682 195.328 185.402 195.602 185.056 195.842C184.709 196.068 184.309 196.248 183.856 196.382C183.416 196.528 182.949 196.602 182.456 196.602ZM183.276 193.942C183.769 193.942 184.196 193.822 184.556 193.582C184.916 193.342 185.189 193.008 185.376 192.582C185.576 192.155 185.676 191.655 185.676 191.082C185.676 190.495 185.576 189.988 185.376 189.562C185.189 189.135 184.916 188.802 184.556 188.562C184.196 188.322 183.769 188.202 183.276 188.202C182.782 188.202 182.356 188.322 181.996 188.562C181.649 188.802 181.376 189.135 181.176 189.562C180.976 189.988 180.876 190.495 180.876 191.082C180.876 191.655 180.976 192.155 181.176 192.582C181.376 193.008 181.649 193.342 181.996 193.582C182.356 193.822 182.782 193.942 183.276 193.942ZM71.76 221.382V207.382H77.62C78.6467 207.382 79.5867 207.555 80.44 207.902C81.2933 208.235 82.0267 208.715 82.64 209.342C83.2667 209.968 83.7467 210.708 84.08 211.562C84.4133 212.415 84.58 213.355 84.58 214.382C84.58 215.408 84.4133 216.355 84.08 217.222C83.7467 218.075 83.2667 218.815 82.64 219.442C82.0267 220.055 81.2933 220.535 80.44 220.882C79.5867 221.215 78.6467 221.382 77.62 221.382H71.76ZM75.16 219.062L74.7 218.382H77.52C78.08 218.382 78.58 218.288 79.02 218.102C79.46 217.902 79.8333 217.628 80.14 217.282C80.46 216.935 80.7067 216.515 80.88 216.022C81.0533 215.528 81.14 214.982 81.14 214.382C81.14 213.782 81.0533 213.235 80.88 212.742C80.7067 212.248 80.46 211.828 80.14 211.482C79.8333 211.135 79.46 210.868 79.02 210.682C78.58 210.482 78.08 210.382 77.52 210.382H74.64L75.16 209.742V219.062ZM91.5292 221.582C90.3559 221.582 89.3359 221.348 88.4692 220.882C87.6026 220.402 86.9292 219.755 86.4492 218.942C85.9692 218.115 85.7292 217.175 85.7292 216.122C85.7292 215.308 85.8626 214.562 86.1292 213.882C86.3959 213.202 86.7692 212.615 87.2492 212.122C87.7292 211.615 88.2959 211.228 88.9492 210.962C89.6159 210.682 90.3426 210.542 91.1292 210.542C91.8759 210.542 92.5559 210.675 93.1692 210.942C93.7959 211.208 94.3359 211.582 94.7892 212.062C95.2426 212.542 95.5892 213.108 95.8292 213.762C96.0692 214.415 96.1759 215.128 96.1492 215.902L96.1292 216.762H87.6692L87.2092 214.962H93.5292L93.1892 215.342V214.942C93.1626 214.608 93.0559 214.315 92.8692 214.062C92.6959 213.795 92.4626 213.588 92.1692 213.442C91.8759 213.295 91.5426 213.222 91.1692 213.222C90.6492 213.222 90.2026 213.328 89.8292 213.542C89.4692 213.742 89.1959 214.042 89.0092 214.442C88.8226 214.828 88.7292 215.308 88.7292 215.882C88.7292 216.468 88.8492 216.982 89.0892 217.422C89.3426 217.848 89.7026 218.182 90.1692 218.422C90.6492 218.662 91.2159 218.782 91.8692 218.782C92.3226 218.782 92.7226 218.715 93.0692 218.582C93.4292 218.448 93.8159 218.222 94.2292 217.902L95.7292 220.022C95.3159 220.382 94.8759 220.675 94.4092 220.902C93.9426 221.128 93.4626 221.295 92.9692 221.402C92.4892 221.522 92.0092 221.582 91.5292 221.582ZM97.788 225.782V210.762H100.828L100.948 213.142L100.348 212.962C100.441 212.522 100.668 212.122 101.028 211.762C101.388 211.402 101.841 211.115 102.388 210.902C102.948 210.675 103.535 210.562 104.148 210.562C105.055 210.562 105.861 210.802 106.568 211.282C107.275 211.748 107.828 212.395 108.228 213.222C108.641 214.035 108.848 214.982 108.848 216.062C108.848 217.128 108.641 218.075 108.228 218.902C107.828 219.728 107.268 220.382 106.548 220.862C105.841 221.328 105.028 221.562 104.108 221.562C103.508 221.562 102.935 221.448 102.388 221.222C101.841 220.995 101.381 220.688 101.008 220.302C100.635 219.915 100.388 219.495 100.268 219.042L101.008 218.762V225.782H97.788ZM103.328 218.862C103.808 218.862 104.228 218.748 104.588 218.522C104.948 218.282 105.228 217.955 105.428 217.542C105.628 217.128 105.728 216.635 105.728 216.062C105.728 215.502 105.628 215.015 105.428 214.602C105.228 214.175 104.948 213.848 104.588 213.622C104.241 213.382 103.821 213.262 103.328 213.262C102.835 213.262 102.408 213.375 102.048 213.602C101.688 213.828 101.408 214.155 101.208 214.582C101.008 215.008 100.908 215.502 100.908 216.062C100.908 216.635 101.008 217.128 101.208 217.542C101.408 217.955 101.688 218.282 102.048 218.522C102.408 218.748 102.835 218.862 103.328 218.862ZM110.592 221.382V206.582H113.792V221.382H110.592ZM121.05 221.582C119.944 221.582 118.957 221.342 118.09 220.862C117.237 220.382 116.557 219.728 116.05 218.902C115.557 218.075 115.31 217.128 115.31 216.062C115.31 214.995 115.557 214.048 116.05 213.222C116.557 212.395 117.237 211.742 118.09 211.262C118.957 210.782 119.944 210.542 121.05 210.542C122.157 210.542 123.137 210.782 123.99 211.262C124.857 211.742 125.537 212.395 126.03 213.222C126.524 214.048 126.77 214.995 126.77 216.062C126.77 217.128 126.524 218.075 126.03 218.902C125.537 219.728 124.857 220.382 123.99 220.862C123.137 221.342 122.157 221.582 121.05 221.582ZM121.05 218.822C121.53 218.822 121.957 218.702 122.33 218.462C122.704 218.222 122.997 217.895 123.21 217.482C123.424 217.068 123.524 216.595 123.51 216.062C123.524 215.528 123.424 215.055 123.21 214.642C122.997 214.215 122.704 213.882 122.33 213.642C121.957 213.402 121.53 213.282 121.05 213.282C120.57 213.282 120.137 213.402 119.75 213.642C119.377 213.882 119.084 214.215 118.87 214.642C118.657 215.055 118.557 215.528 118.57 216.062C118.557 216.595 118.657 217.068 118.87 217.482C119.084 217.895 119.377 218.222 119.75 218.462C120.137 218.702 120.57 218.822 121.05 218.822ZM129.412 225.982L131.832 220.282L131.872 221.922L126.752 210.762H130.372L132.612 216.102C132.732 216.368 132.846 216.655 132.952 216.962C133.059 217.268 133.139 217.562 133.192 217.842L132.752 218.102C132.832 217.902 132.919 217.655 133.012 217.362C133.119 217.055 133.232 216.728 133.352 216.382L135.312 210.762H138.952L134.432 221.382L132.592 225.982H129.412ZM140.055 221.382V210.762H143.095L143.195 212.682L142.775 212.702C142.935 212.355 143.135 212.048 143.375 211.782C143.628 211.515 143.908 211.295 144.215 211.122C144.535 210.935 144.861 210.795 145.195 210.702C145.541 210.608 145.888 210.562 146.235 210.562C146.755 210.562 147.228 210.642 147.655 210.802C148.081 210.962 148.455 211.222 148.775 211.582C149.095 211.928 149.348 212.402 149.535 213.002L149.035 212.962L149.195 212.642C149.368 212.322 149.588 212.035 149.855 211.782C150.135 211.515 150.441 211.295 150.775 211.122C151.108 210.935 151.455 210.795 151.815 210.702C152.175 210.608 152.521 210.562 152.855 210.562C153.695 210.562 154.395 210.728 154.955 211.062C155.515 211.382 155.935 211.868 156.215 212.522C156.508 213.175 156.655 213.968 156.655 214.902V221.382H153.435V215.162C153.435 214.735 153.375 214.382 153.255 214.102C153.135 213.822 152.955 213.615 152.715 213.482C152.488 213.335 152.201 213.262 151.855 213.262C151.575 213.262 151.315 213.308 151.075 213.402C150.848 213.495 150.648 213.622 150.475 213.782C150.315 213.942 150.188 214.128 150.095 214.342C150.001 214.555 149.955 214.795 149.955 215.062V221.382H146.735V215.142C146.735 214.742 146.675 214.402 146.555 214.122C146.435 213.842 146.255 213.628 146.015 213.482C145.775 213.335 145.495 213.262 145.175 213.262C144.895 213.262 144.635 213.308 144.395 213.402C144.168 213.495 143.968 213.622 143.795 213.782C143.635 213.942 143.508 214.128 143.415 214.342C143.321 214.555 143.275 214.788 143.275 215.042V221.382H140.055ZM163.973 221.582C162.8 221.582 161.78 221.348 160.913 220.882C160.046 220.402 159.373 219.755 158.893 218.942C158.413 218.115 158.173 217.175 158.173 216.122C158.173 215.308 158.306 214.562 158.573 213.882C158.84 213.202 159.213 212.615 159.693 212.122C160.173 211.615 160.74 211.228 161.393 210.962C162.06 210.682 162.786 210.542 163.573 210.542C164.32 210.542 165 210.675 165.613 210.942C166.24 211.208 166.78 211.582 167.233 212.062C167.686 212.542 168.033 213.108 168.273 213.762C168.513 214.415 168.62 215.128 168.593 215.902L168.573 216.762H160.113L159.653 214.962H165.973L165.633 215.342V214.942C165.606 214.608 165.5 214.315 165.313 214.062C165.14 213.795 164.906 213.588 164.613 213.442C164.32 213.295 163.986 213.222 163.613 213.222C163.093 213.222 162.646 213.328 162.273 213.542C161.913 213.742 161.64 214.042 161.453 214.442C161.266 214.828 161.173 215.308 161.173 215.882C161.173 216.468 161.293 216.982 161.533 217.422C161.786 217.848 162.146 218.182 162.613 218.422C163.093 218.662 163.66 218.782 164.313 218.782C164.766 218.782 165.166 218.715 165.513 218.582C165.873 218.448 166.26 218.222 166.673 217.902L168.173 220.022C167.76 220.382 167.32 220.675 166.853 220.902C166.386 221.128 165.906 221.295 165.413 221.402C164.933 221.522 164.453 221.582 163.973 221.582ZM170.232 221.382V210.762H173.272L173.372 212.922L172.732 213.162C172.878 212.682 173.138 212.248 173.512 211.862C173.898 211.462 174.358 211.142 174.892 210.902C175.425 210.662 175.985 210.542 176.572 210.542C177.372 210.542 178.045 210.708 178.592 211.042C179.138 211.362 179.552 211.848 179.832 212.502C180.112 213.142 180.252 213.928 180.252 214.862V221.382H177.032V215.122C177.032 214.695 176.972 214.342 176.852 214.062C176.732 213.782 176.545 213.575 176.292 213.442C176.052 213.295 175.752 213.228 175.392 213.242C175.112 213.242 174.852 213.288 174.612 213.382C174.372 213.462 174.165 213.588 173.992 213.762C173.818 213.922 173.678 214.108 173.572 214.322C173.478 214.535 173.432 214.768 173.432 215.022V221.382H171.852C171.478 221.382 171.158 221.382 170.892 221.382C170.625 221.382 170.405 221.382 170.232 221.382ZM183.407 221.382V208.082H186.607V221.382H183.407ZM181.527 213.562V210.762H188.667V213.562H181.527ZM71.76 246.382V232.382H77.8C78.68 232.382 79.46 232.582 80.14 232.982C80.8333 233.382 81.38 233.928 81.78 234.622C82.1933 235.315 82.4 236.095 82.4 236.962C82.4 237.868 82.1933 238.682 81.78 239.402C81.38 240.108 80.8333 240.668 80.14 241.082C79.46 241.495 78.68 241.702 77.8 241.702H75.16V246.382H71.76ZM75.1 238.722H77.32C77.6133 238.722 77.88 238.648 78.12 238.502C78.36 238.355 78.5533 238.155 78.7 237.902C78.8467 237.648 78.92 237.355 78.92 237.022C78.92 236.675 78.8467 236.382 78.7 236.142C78.5533 235.902 78.36 235.715 78.12 235.582C77.88 235.448 77.6133 235.382 77.32 235.382H75.1V238.722ZM84.2822 246.382V231.582H87.4822V246.382H84.2822ZM93.6611 246.562C92.7678 246.562 91.9678 246.328 91.2611 245.862C90.5678 245.382 90.0144 244.728 89.6011 243.902C89.1878 243.062 88.9811 242.115 88.9811 241.062C88.9811 239.982 89.1878 239.028 89.6011 238.202C90.0144 237.375 90.5811 236.728 91.3011 236.262C92.0211 235.782 92.8411 235.542 93.7611 235.542C94.2678 235.542 94.7278 235.615 95.1411 235.762C95.5678 235.908 95.9411 236.115 96.2611 236.382C96.5811 236.635 96.8544 236.935 97.0811 237.282C97.3078 237.615 97.4744 237.975 97.5811 238.362L96.9211 238.282V235.762H100.101V246.382H96.8611V243.822L97.5811 243.802C97.4744 244.175 97.3011 244.528 97.0611 244.862C96.8211 245.195 96.5278 245.488 96.1811 245.742C95.8344 245.995 95.4478 246.195 95.0211 246.342C94.5944 246.488 94.1411 246.562 93.6611 246.562ZM94.5411 243.862C95.0344 243.862 95.4611 243.748 95.8211 243.522C96.1811 243.295 96.4611 242.975 96.6611 242.562C96.8611 242.135 96.9611 241.635 96.9611 241.062C96.9611 240.488 96.8611 239.995 96.6611 239.582C96.4611 239.155 96.1811 238.828 95.8211 238.602C95.4611 238.362 95.0344 238.242 94.5411 238.242C94.0611 238.242 93.6411 238.362 93.2811 238.602C92.9344 238.828 92.6611 239.155 92.4611 239.582C92.2611 239.995 92.1611 240.488 92.1611 241.062C92.1611 241.635 92.2611 242.135 92.4611 242.562C92.6611 242.975 92.9344 243.295 93.2811 243.522C93.6411 243.748 94.0611 243.862 94.5411 243.862ZM103.405 246.382V233.082H106.605V246.382H103.405ZM101.525 238.562V235.762H108.665V238.562H101.525ZM110.246 246.382V235.242C110.246 234.548 110.392 233.922 110.686 233.362C110.992 232.802 111.412 232.362 111.946 232.042C112.492 231.708 113.126 231.542 113.846 231.542C114.352 231.542 114.819 231.615 115.246 231.762C115.672 231.908 116.052 232.115 116.386 232.382L115.466 234.722C115.292 234.628 115.126 234.555 114.966 234.502C114.806 234.448 114.659 234.422 114.526 234.422C114.286 234.422 114.086 234.462 113.926 234.542C113.766 234.622 113.646 234.748 113.566 234.922C113.499 235.082 113.466 235.282 113.466 235.522V246.382H111.866C111.506 246.382 111.186 246.382 110.906 246.382C110.639 246.382 110.419 246.382 110.246 246.382ZM108.706 238.702V236.062H115.646V238.702H108.706ZM121.647 246.582C120.54 246.582 119.553 246.342 118.687 245.862C117.833 245.382 117.153 244.728 116.647 243.902C116.153 243.075 115.907 242.128 115.907 241.062C115.907 239.995 116.153 239.048 116.647 238.222C117.153 237.395 117.833 236.742 118.687 236.262C119.553 235.782 120.54 235.542 121.647 235.542C122.753 235.542 123.733 235.782 124.587 236.262C125.453 236.742 126.133 237.395 126.627 238.222C127.12 239.048 127.367 239.995 127.367 241.062C127.367 242.128 127.12 243.075 126.627 243.902C126.133 244.728 125.453 245.382 124.587 245.862C123.733 246.342 122.753 246.582 121.647 246.582ZM121.647 243.822C122.127 243.822 122.553 243.702 122.927 243.462C123.3 243.222 123.593 242.895 123.807 242.482C124.02 242.068 124.12 241.595 124.107 241.062C124.12 240.528 124.02 240.055 123.807 239.642C123.593 239.215 123.3 238.882 122.927 238.642C122.553 238.402 122.127 238.282 121.647 238.282C121.167 238.282 120.733 238.402 120.347 238.642C119.973 238.882 119.68 239.215 119.467 239.642C119.253 240.055 119.153 240.528 119.167 241.062C119.153 241.595 119.253 242.068 119.467 242.482C119.68 242.895 119.973 243.222 120.347 243.462C120.733 243.702 121.167 243.822 121.647 243.822ZM129.059 246.382V235.762H132.099L132.239 239.222L131.639 238.562C131.799 237.988 132.059 237.475 132.419 237.022C132.792 236.568 133.226 236.208 133.719 235.942C134.212 235.675 134.739 235.542 135.299 235.542C135.539 235.542 135.759 235.562 135.959 235.602C136.172 235.642 136.366 235.688 136.539 235.742L135.659 239.282C135.512 239.188 135.312 239.115 135.059 239.062C134.819 238.995 134.566 238.962 134.299 238.962C134.006 238.962 133.732 239.015 133.479 239.122C133.226 239.215 133.012 239.355 132.839 239.542C132.666 239.728 132.526 239.948 132.419 240.202C132.326 240.455 132.279 240.742 132.279 241.062V246.382H129.059ZM137.741 246.382V235.762H140.781L140.881 237.682L140.461 237.702C140.621 237.355 140.821 237.048 141.061 236.782C141.314 236.515 141.594 236.295 141.901 236.122C142.221 235.935 142.547 235.795 142.881 235.702C143.227 235.608 143.574 235.562 143.921 235.562C144.441 235.562 144.914 235.642 145.341 235.802C145.767 235.962 146.141 236.222 146.461 236.582C146.781 236.928 147.034 237.402 147.221 238.002L146.721 237.962L146.881 237.642C147.054 237.322 147.274 237.035 147.541 236.782C147.821 236.515 148.127 236.295 148.461 236.122C148.794 235.935 149.141 235.795 149.501 235.702C149.861 235.608 150.207 235.562 150.541 235.562C151.381 235.562 152.081 235.728 152.641 236.062C153.201 236.382 153.621 236.868 153.901 237.522C154.194 238.175 154.341 238.968 154.341 239.902V246.382H151.121V240.162C151.121 239.735 151.061 239.382 150.941 239.102C150.821 238.822 150.641 238.615 150.401 238.482C150.174 238.335 149.887 238.262 149.541 238.262C149.261 238.262 149.001 238.308 148.761 238.402C148.534 238.495 148.334 238.622 148.161 238.782C148.001 238.942 147.874 239.128 147.781 239.342C147.687 239.555 147.641 239.795 147.641 240.062V246.382H144.421V240.142C144.421 239.742 144.361 239.402 144.241 239.122C144.121 238.842 143.941 238.628 143.701 238.482C143.461 238.335 143.181 238.262 142.861 238.262C142.581 238.262 142.321 238.308 142.081 238.402C141.854 238.495 141.654 238.622 141.481 238.782C141.321 238.942 141.194 239.128 141.101 239.342C141.007 239.555 140.961 239.788 140.961 240.042V246.382H137.741Z" fill="white"/>
<path d="M1126.51 827V803.2H1130.93V822.92H1141.91V827H1126.51ZM1153.27 827.34C1151.39 827.34 1149.72 826.943 1148.27 826.15C1146.84 825.357 1145.72 824.28 1144.91 822.92C1144.11 821.537 1143.72 819.962 1143.72 818.194C1143.72 816.789 1143.94 815.508 1144.4 814.352C1144.85 813.196 1145.47 812.199 1146.27 811.36C1147.08 810.499 1148.05 809.841 1149.16 809.388C1150.29 808.912 1151.52 808.674 1152.86 808.674C1154.04 808.674 1155.14 808.901 1156.16 809.354C1157.18 809.807 1158.06 810.431 1158.81 811.224C1159.56 811.995 1160.13 812.924 1160.51 814.012C1160.92 815.077 1161.11 816.245 1161.09 817.514L1161.06 818.976H1146.54L1145.76 816.12H1157.55L1157.01 816.698V815.95C1156.94 815.247 1156.72 814.635 1156.33 814.114C1155.94 813.57 1155.45 813.151 1154.83 812.856C1154.24 812.539 1153.59 812.38 1152.86 812.38C1151.75 812.38 1150.81 812.595 1150.04 813.026C1149.29 813.457 1148.73 814.08 1148.34 814.896C1147.95 815.689 1147.76 816.687 1147.76 817.888C1147.76 819.044 1148 820.053 1148.48 820.914C1148.97 821.775 1149.67 822.444 1150.55 822.92C1151.46 823.373 1152.51 823.6 1153.71 823.6C1154.55 823.6 1155.32 823.464 1156.02 823.192C1156.73 822.92 1157.49 822.433 1158.3 821.73L1160.38 824.62C1159.76 825.187 1159.06 825.674 1158.27 826.082C1157.5 826.467 1156.68 826.773 1155.82 827C1154.96 827.227 1154.11 827.34 1153.27 827.34ZM1166.05 827V804.526H1170.23V827H1166.05ZM1162.52 812.958V809.082H1174.14V812.958H1162.52ZM1183.3 827.34C1181.71 827.34 1180.28 827.079 1179.01 826.558C1177.77 826.014 1176.75 825.243 1175.95 824.246L1178.67 821.9C1179.35 822.671 1180.11 823.226 1180.95 823.566C1181.79 823.906 1182.67 824.076 1183.6 824.076C1183.99 824.076 1184.33 824.031 1184.62 823.94C1184.94 823.849 1185.21 823.713 1185.44 823.532C1185.67 823.351 1185.84 823.147 1185.95 822.92C1186.08 822.671 1186.15 822.399 1186.15 822.104C1186.15 821.56 1185.95 821.129 1185.54 820.812C1185.31 820.653 1184.95 820.483 1184.45 820.302C1183.98 820.121 1183.35 819.939 1182.58 819.758C1181.36 819.441 1180.34 819.078 1179.52 818.67C1178.71 818.239 1178.07 817.763 1177.62 817.242C1177.23 816.811 1176.94 816.324 1176.73 815.78C1176.55 815.236 1176.46 814.647 1176.46 814.012C1176.46 813.219 1176.63 812.505 1176.97 811.87C1177.34 811.213 1177.82 810.646 1178.43 810.17C1179.05 809.694 1179.76 809.331 1180.58 809.082C1181.39 808.833 1182.24 808.708 1183.13 808.708C1184.03 808.708 1184.91 808.821 1185.74 809.048C1186.61 809.275 1187.4 809.603 1188.12 810.034C1188.87 810.442 1189.51 810.941 1190.03 811.53L1187.72 814.08C1187.29 813.672 1186.81 813.309 1186.29 812.992C1185.79 812.675 1185.28 812.425 1184.76 812.244C1184.24 812.04 1183.75 811.938 1183.3 811.938C1182.87 811.938 1182.48 811.983 1182.14 812.074C1181.8 812.142 1181.52 812.255 1181.29 812.414C1181.06 812.573 1180.88 812.777 1180.75 813.026C1180.63 813.253 1180.58 813.525 1180.58 813.842C1180.6 814.114 1180.67 814.375 1180.78 814.624C1180.92 814.851 1181.1 815.043 1181.32 815.202C1181.57 815.361 1181.95 815.542 1182.45 815.746C1182.95 815.95 1183.59 816.143 1184.38 816.324C1185.5 816.619 1186.42 816.947 1187.17 817.31C1187.92 817.673 1188.51 818.092 1188.94 818.568C1189.37 818.976 1189.68 819.452 1189.86 819.996C1190.04 820.54 1190.13 821.141 1190.13 821.798C1190.13 822.863 1189.82 823.815 1189.21 824.654C1188.62 825.493 1187.81 826.15 1186.76 826.626C1185.74 827.102 1184.59 827.34 1183.3 827.34ZM1203.2 827V803.2H1213.33C1214.89 803.2 1216.21 803.427 1217.27 803.88C1218.36 804.333 1219.18 805.013 1219.72 805.92C1220.29 806.804 1220.57 807.881 1220.57 809.15C1220.57 810.465 1220.22 811.575 1219.52 812.482C1218.81 813.389 1217.83 814.012 1216.56 814.352L1216.52 813.672C1217.59 813.899 1218.52 814.307 1219.31 814.896C1220.11 815.463 1220.72 816.177 1221.15 817.038C1221.6 817.877 1221.83 818.84 1221.83 819.928C1221.83 821.084 1221.64 822.104 1221.25 822.988C1220.89 823.872 1220.34 824.609 1219.62 825.198C1218.89 825.787 1218.03 826.241 1217.03 826.558C1216.04 826.853 1214.92 827 1213.67 827H1203.2ZM1207.51 823.022H1213.46C1214.3 823.022 1215.01 822.897 1215.57 822.648C1216.16 822.399 1216.6 822.036 1216.9 821.56C1217.22 821.061 1217.37 820.472 1217.37 819.792C1217.37 819.157 1217.2 818.613 1216.86 818.16C1216.55 817.707 1216.08 817.367 1215.47 817.14C1214.86 816.891 1214.13 816.766 1213.29 816.766H1207.51V823.022ZM1207.51 812.958H1212.92C1213.58 812.958 1214.14 812.833 1214.62 812.584C1215.12 812.335 1215.5 811.995 1215.78 811.564C1216.05 811.133 1216.18 810.635 1216.18 810.068C1216.18 809.161 1215.88 808.459 1215.27 807.96C1214.65 807.439 1213.76 807.178 1212.58 807.178H1207.51V812.958ZM1231.4 827.34C1230.11 827.34 1228.99 827.057 1228.03 826.49C1227.08 825.901 1226.36 825.073 1225.86 824.008C1225.36 822.92 1225.11 821.628 1225.11 820.132V809.082H1229.29V819.248C1229.29 820.2 1229.44 821.016 1229.73 821.696C1230.03 822.353 1230.46 822.863 1231.03 823.226C1231.59 823.589 1232.27 823.77 1233.07 823.77C1233.65 823.77 1234.19 823.679 1234.66 823.498C1235.16 823.294 1235.59 823.022 1235.96 822.682C1236.32 822.319 1236.6 821.9 1236.81 821.424C1237.01 820.925 1237.11 820.393 1237.11 819.826V809.082H1241.29V827H1237.21L1237.15 823.26L1237.89 822.852C1237.62 823.713 1237.16 824.484 1236.5 825.164C1235.86 825.821 1235.11 826.354 1234.22 826.762C1233.34 827.147 1232.4 827.34 1231.4 827.34ZM1245.99 827V809.082H1250.17V827H1245.99ZM1248.03 805.274C1247.19 805.274 1246.53 805.07 1246.06 804.662C1245.61 804.231 1245.38 803.631 1245.38 802.86C1245.38 802.135 1245.62 801.545 1246.09 801.092C1246.57 800.639 1247.21 800.412 1248.03 800.412C1248.89 800.412 1249.55 800.627 1250 801.058C1250.48 801.466 1250.72 802.067 1250.72 802.86C1250.72 803.563 1250.48 804.141 1250 804.594C1249.53 805.047 1248.87 805.274 1248.03 805.274ZM1254.83 827V801.84H1259.05V827H1254.83ZM1270.16 827.34C1268.57 827.34 1267.14 826.943 1265.87 826.15C1264.62 825.334 1263.63 824.235 1262.88 822.852C1262.15 821.447 1261.79 819.837 1261.79 818.024C1261.79 816.233 1262.15 814.635 1262.88 813.23C1263.6 811.825 1264.59 810.725 1265.84 809.932C1267.11 809.116 1268.53 808.708 1270.12 808.708C1270.98 808.708 1271.81 808.844 1272.6 809.116C1273.42 809.388 1274.14 809.762 1274.78 810.238C1275.41 810.691 1275.91 811.201 1276.28 811.768C1276.66 812.335 1276.88 812.924 1276.92 813.536L1275.8 813.672V801.84H1279.98V827H1275.94L1275.83 822.784L1276.65 822.852C1276.63 823.419 1276.42 823.963 1276.04 824.484C1275.67 825.005 1275.2 825.481 1274.61 825.912C1274.02 826.343 1273.33 826.694 1272.54 826.966C1271.76 827.215 1270.97 827.34 1270.16 827.34ZM1270.97 823.804C1271.95 823.804 1272.81 823.555 1273.56 823.056C1274.3 822.557 1274.88 821.877 1275.29 821.016C1275.72 820.155 1275.94 819.157 1275.94 818.024C1275.94 816.913 1275.72 815.927 1275.29 815.066C1274.88 814.182 1274.3 813.502 1273.56 813.026C1272.81 812.527 1271.95 812.278 1270.97 812.278C1270 812.278 1269.14 812.527 1268.39 813.026C1267.64 813.502 1267.05 814.182 1266.62 815.066C1266.21 815.927 1266.01 816.913 1266.01 818.024C1266.01 819.157 1266.21 820.155 1266.62 821.016C1267.05 821.877 1267.64 822.557 1268.39 823.056C1269.14 823.555 1270 823.804 1270.97 823.804ZM1134.06 870.34C1132.68 870.34 1131.41 870.17 1130.25 869.83C1129.09 869.467 1128.05 868.935 1127.12 868.232C1126.19 867.529 1125.37 866.679 1124.64 865.682L1127.53 862.418C1128.64 863.959 1129.73 865.025 1130.79 865.614C1131.86 866.203 1133.06 866.498 1134.4 866.498C1135.17 866.498 1135.87 866.385 1136.51 866.158C1137.14 865.909 1137.64 865.58 1138 865.172C1138.37 864.741 1138.55 864.254 1138.55 863.71C1138.55 863.325 1138.47 862.973 1138.31 862.656C1138.17 862.316 1137.96 862.021 1137.66 861.772C1137.37 861.5 1137.01 861.251 1136.57 861.024C1136.14 860.797 1135.66 860.605 1135.11 860.446C1134.57 860.287 1133.97 860.14 1133.31 860.004C1132.06 859.755 1130.98 859.426 1130.05 859.018C1129.12 858.587 1128.34 858.066 1127.7 857.454C1127.07 856.819 1126.6 856.117 1126.31 855.346C1126.01 854.553 1125.86 853.657 1125.86 852.66C1125.86 851.663 1126.08 850.745 1126.51 849.906C1126.96 849.067 1127.58 848.342 1128.35 847.73C1129.12 847.118 1130.01 846.642 1131.03 846.302C1132.05 845.962 1133.15 845.792 1134.33 845.792C1135.67 845.792 1136.86 845.951 1137.9 846.268C1138.97 846.585 1139.9 847.061 1140.69 847.696C1141.5 848.308 1142.17 849.056 1142.69 849.94L1139.77 852.83C1139.32 852.127 1138.81 851.549 1138.24 851.096C1137.67 850.62 1137.06 850.269 1136.4 850.042C1135.75 849.793 1135.06 849.668 1134.33 849.668C1133.51 849.668 1132.8 849.781 1132.19 850.008C1131.6 850.235 1131.13 850.563 1130.79 850.994C1130.45 851.402 1130.28 851.901 1130.28 852.49C1130.28 852.943 1130.39 853.351 1130.59 853.714C1130.79 854.054 1131.08 854.36 1131.44 854.632C1131.83 854.904 1132.31 855.142 1132.9 855.346C1133.49 855.55 1134.16 855.731 1134.91 855.89C1136.16 856.139 1137.28 856.479 1138.27 856.91C1139.27 857.318 1140.12 857.817 1140.82 858.406C1141.53 858.973 1142.06 859.63 1142.42 860.378C1142.79 861.103 1142.97 861.919 1142.97 862.826C1142.97 864.39 1142.59 865.739 1141.84 866.872C1141.12 867.983 1140.09 868.844 1138.75 869.456C1137.41 870.045 1135.85 870.34 1134.06 870.34ZM1154.59 870.34C1152.8 870.34 1151.2 869.943 1149.8 869.15C1148.39 868.334 1147.28 867.223 1146.47 865.818C1145.65 864.413 1145.24 862.815 1145.24 861.024C1145.24 859.233 1145.65 857.635 1146.47 856.23C1147.28 854.825 1148.39 853.725 1149.8 852.932C1151.2 852.116 1152.8 851.708 1154.59 851.708C1156.36 851.708 1157.95 852.116 1159.35 852.932C1160.76 853.725 1161.86 854.825 1162.65 856.23C1163.47 857.635 1163.88 859.233 1163.88 861.024C1163.88 862.815 1163.47 864.413 1162.65 865.818C1161.86 867.223 1160.76 868.334 1159.35 869.15C1157.95 869.943 1156.36 870.34 1154.59 870.34ZM1154.59 866.634C1155.57 866.634 1156.43 866.385 1157.18 865.886C1157.95 865.387 1158.55 864.719 1158.98 863.88C1159.43 863.041 1159.65 862.089 1159.63 861.024C1159.65 859.936 1159.43 858.973 1158.98 858.134C1158.55 857.295 1157.95 856.638 1157.18 856.162C1156.43 855.663 1155.57 855.414 1154.59 855.414C1153.62 855.414 1152.73 855.663 1151.94 856.162C1151.17 856.638 1150.57 857.307 1150.14 858.168C1149.71 859.007 1149.49 859.959 1149.49 861.024C1149.49 862.089 1149.71 863.041 1150.14 863.88C1150.57 864.719 1151.17 865.387 1151.94 865.886C1152.73 866.385 1153.62 866.634 1154.59 866.634ZM1166.87 870V852.082H1170.98L1171.05 855.686L1170.37 855.958C1170.57 855.369 1170.88 854.825 1171.29 854.326C1171.7 853.805 1172.18 853.363 1172.75 853C1173.32 852.615 1173.92 852.32 1174.55 852.116C1175.19 851.889 1175.83 851.776 1176.49 851.776C1177.46 851.776 1178.33 851.935 1179.07 852.252C1179.84 852.547 1180.48 853.023 1180.98 853.68C1181.5 854.337 1181.88 855.176 1182.13 856.196L1181.49 856.06L1181.76 855.516C1182.01 854.972 1182.36 854.485 1182.81 854.054C1183.27 853.601 1183.78 853.204 1184.34 852.864C1184.91 852.501 1185.5 852.229 1186.11 852.048C1186.75 851.867 1187.37 851.776 1187.98 851.776C1189.34 851.776 1190.48 852.048 1191.38 852.592C1192.29 853.136 1192.97 853.963 1193.42 855.074C1193.88 856.185 1194.1 857.556 1194.1 859.188V870H1189.89V859.46C1189.89 858.553 1189.76 857.805 1189.51 857.216C1189.29 856.627 1188.92 856.196 1188.42 855.924C1187.95 855.629 1187.35 855.482 1186.62 855.482C1186.06 855.482 1185.51 855.584 1184.99 855.788C1184.49 855.969 1184.06 856.241 1183.7 856.604C1183.34 856.944 1183.05 857.341 1182.85 857.794C1182.64 858.247 1182.54 858.746 1182.54 859.29V870H1178.33V859.426C1178.33 858.565 1178.2 857.851 1177.95 857.284C1177.7 856.695 1177.34 856.253 1176.86 855.958C1176.39 855.641 1175.81 855.482 1175.13 855.482C1174.56 855.482 1174.03 855.584 1173.53 855.788C1173.03 855.969 1172.6 856.23 1172.24 856.57C1171.88 856.91 1171.59 857.307 1171.39 857.76C1171.19 858.213 1171.08 858.712 1171.08 859.256V870H1166.87ZM1206.46 870.34C1204.58 870.34 1202.92 869.943 1201.46 869.15C1200.04 868.357 1198.91 867.28 1198.1 865.92C1197.31 864.537 1196.91 862.962 1196.91 861.194C1196.91 859.789 1197.14 858.508 1197.59 857.352C1198.04 856.196 1198.67 855.199 1199.46 854.36C1200.27 853.499 1201.24 852.841 1202.35 852.388C1203.48 851.912 1204.72 851.674 1206.05 851.674C1207.23 851.674 1208.33 851.901 1209.35 852.354C1210.37 852.807 1211.26 853.431 1212 854.224C1212.75 854.995 1213.32 855.924 1213.7 857.012C1214.11 858.077 1214.31 859.245 1214.28 860.514L1214.25 861.976H1199.73L1198.95 859.12H1210.75L1210.2 859.698V858.95C1210.13 858.247 1209.91 857.635 1209.52 857.114C1209.14 856.57 1208.64 856.151 1208.03 855.856C1207.44 855.539 1206.78 855.38 1206.05 855.38C1204.94 855.38 1204 855.595 1203.23 856.026C1202.48 856.457 1201.92 857.08 1201.53 857.896C1201.15 858.689 1200.95 859.687 1200.95 860.888C1200.95 862.044 1201.19 863.053 1201.67 863.914C1202.17 864.775 1202.86 865.444 1203.74 865.92C1204.65 866.373 1205.7 866.6 1206.9 866.6C1207.74 866.6 1208.51 866.464 1209.22 866.192C1209.92 865.92 1210.68 865.433 1211.49 864.73L1213.57 867.62C1212.96 868.187 1212.25 868.674 1211.46 869.082C1210.69 869.467 1209.87 869.773 1209.01 870C1208.15 870.227 1207.3 870.34 1206.46 870.34ZM1219.24 870V847.526H1223.43V870H1219.24ZM1215.71 855.958V852.082H1227.34V855.958H1215.71ZM1229.84 870V844.84H1233.99V855.754L1233.21 856.162C1233.43 855.346 1233.88 854.609 1234.53 853.952C1235.19 853.272 1235.97 852.728 1236.88 852.32C1237.79 851.912 1238.72 851.708 1239.67 851.708C1241.03 851.708 1242.16 851.98 1243.07 852.524C1244 853.068 1244.69 853.884 1245.14 854.972C1245.62 856.06 1245.86 857.42 1245.86 859.052V870H1241.67V859.358C1241.67 858.451 1241.55 857.703 1241.3 857.114C1241.05 856.502 1240.66 856.06 1240.14 855.788C1239.62 855.493 1238.99 855.357 1238.24 855.38C1237.63 855.38 1237.06 855.482 1236.54 855.686C1236.04 855.867 1235.6 856.139 1235.21 856.502C1234.85 856.842 1234.56 857.239 1234.33 857.692C1234.13 858.145 1234.02 858.644 1234.02 859.188V870H1231.95C1231.54 870 1231.16 870 1230.79 870C1230.45 870 1230.14 870 1229.84 870ZM1250.36 870V852.082H1254.54V870H1250.36ZM1252.4 848.274C1251.56 848.274 1250.9 848.07 1250.42 847.662C1249.97 847.231 1249.74 846.631 1249.74 845.86C1249.74 845.135 1249.98 844.545 1250.46 844.092C1250.93 843.639 1251.58 843.412 1252.4 843.412C1253.26 843.412 1253.91 843.627 1254.37 844.058C1254.84 844.466 1255.08 845.067 1255.08 845.86C1255.08 846.563 1254.84 847.141 1254.37 847.594C1253.89 848.047 1253.23 848.274 1252.4 848.274ZM1259.16 870V852.082H1263.24L1263.31 855.754L1262.53 856.162C1262.75 855.346 1263.2 854.609 1263.85 853.952C1264.51 853.272 1265.29 852.728 1266.2 852.32C1267.11 851.912 1268.04 851.708 1268.99 851.708C1270.35 851.708 1271.48 851.98 1272.39 852.524C1273.32 853.068 1274.01 853.884 1274.46 854.972C1274.94 856.06 1275.18 857.42 1275.18 859.052V870H1270.99V859.358C1270.99 858.451 1270.87 857.703 1270.62 857.114C1270.37 856.502 1269.98 856.06 1269.46 855.788C1268.94 855.493 1268.31 855.357 1267.56 855.38C1266.95 855.38 1266.38 855.482 1265.86 855.686C1265.36 855.867 1264.92 856.139 1264.53 856.502C1264.17 856.842 1263.88 857.239 1263.65 857.692C1263.45 858.145 1263.34 858.644 1263.34 859.188V870H1261.27C1260.86 870 1260.48 870 1260.11 870C1259.77 870 1259.46 870 1259.16 870ZM1287.26 877.82C1285.92 877.82 1284.58 877.616 1283.25 877.208C1281.93 876.8 1280.87 876.267 1280.05 875.61L1281.55 872.516C1282.02 872.856 1282.55 873.151 1283.14 873.4C1283.73 873.649 1284.36 873.842 1285.01 873.978C1285.69 874.114 1286.36 874.182 1287.02 874.182C1288.22 874.182 1289.22 873.989 1290.01 873.604C1290.83 873.241 1291.44 872.675 1291.85 871.904C1292.26 871.156 1292.46 870.215 1292.46 869.082V865.784L1293.07 866.022C1292.94 866.725 1292.56 867.393 1291.95 868.028C1291.34 868.663 1290.57 869.184 1289.64 869.592C1288.71 869.977 1287.76 870.17 1286.78 870.17C1285.08 870.17 1283.57 869.773 1282.26 868.98C1280.97 868.187 1279.94 867.11 1279.17 865.75C1278.42 864.367 1278.04 862.781 1278.04 860.99C1278.04 859.199 1278.42 857.613 1279.17 856.23C1279.91 854.825 1280.93 853.725 1282.23 852.932C1283.54 852.116 1285.01 851.708 1286.65 851.708C1287.33 851.708 1287.98 851.787 1288.62 851.946C1289.25 852.105 1289.83 852.331 1290.35 852.626C1290.9 852.921 1291.38 853.249 1291.81 853.612C1292.24 853.975 1292.6 854.36 1292.87 854.768C1293.14 855.176 1293.31 855.573 1293.38 855.958L1292.49 856.23L1292.56 852.082H1296.68V868.776C1296.68 870.227 1296.46 871.507 1296.03 872.618C1295.6 873.729 1294.98 874.669 1294.16 875.44C1293.34 876.233 1292.36 876.823 1291.2 877.208C1290.05 877.616 1288.73 877.82 1287.26 877.82ZM1287.43 866.6C1288.45 866.6 1289.34 866.362 1290.11 865.886C1290.91 865.41 1291.52 864.753 1291.95 863.914C1292.38 863.075 1292.6 862.112 1292.6 861.024C1292.6 859.913 1292.37 858.939 1291.92 858.1C1291.49 857.239 1290.88 856.57 1290.11 856.094C1289.34 855.618 1288.45 855.38 1287.43 855.38C1286.41 855.38 1285.51 855.629 1284.74 856.128C1283.97 856.604 1283.36 857.273 1282.91 858.134C1282.48 858.973 1282.26 859.936 1282.26 861.024C1282.26 862.089 1282.48 863.053 1282.91 863.914C1283.36 864.753 1283.97 865.41 1284.74 865.886C1285.51 866.362 1286.41 866.6 1287.43 866.6ZM1137.32 913.34C1135.53 913.34 1133.88 913.034 1132.36 912.422C1130.84 911.787 1129.51 910.915 1128.38 909.804C1127.27 908.693 1126.41 907.401 1125.8 905.928C1125.18 904.432 1124.88 902.811 1124.88 901.066C1124.88 899.343 1125.18 897.745 1125.8 896.272C1126.43 894.776 1127.32 893.484 1128.45 892.396C1129.58 891.285 1130.91 890.424 1132.43 889.812C1133.97 889.2 1135.62 888.894 1137.39 888.894C1138.64 888.894 1139.84 889.064 1140.99 889.404C1142.15 889.744 1143.19 890.22 1144.12 890.832C1145.05 891.444 1145.82 892.135 1146.43 892.906L1143.65 895.83C1143.01 895.218 1142.35 894.708 1141.67 894.3C1141.02 893.892 1140.33 893.575 1139.6 893.348C1138.88 893.121 1138.13 893.008 1137.36 893.008C1136.22 893.008 1135.17 893.212 1134.19 893.62C1133.24 894.028 1132.4 894.595 1131.68 895.32C1130.98 896.045 1130.42 896.895 1130.01 897.87C1129.6 898.845 1129.4 899.91 1129.4 901.066C1129.4 902.177 1129.6 903.231 1130.01 904.228C1130.44 905.225 1131.03 906.098 1131.78 906.846C1132.53 907.594 1133.39 908.183 1134.36 908.614C1135.36 909.022 1136.42 909.226 1137.53 909.226C1138.37 909.226 1139.15 909.101 1139.87 908.852C1140.6 908.603 1141.24 908.263 1141.81 907.832C1142.38 907.379 1142.81 906.857 1143.1 906.268C1143.42 905.679 1143.58 905.044 1143.58 904.364V903.616L1144.19 904.33H1137.15V900.386H1147.93C1147.98 900.635 1148.01 900.919 1148.03 901.236C1148.06 901.531 1148.07 901.825 1148.07 902.12C1148.09 902.392 1148.1 902.63 1148.1 902.834C1148.1 904.398 1147.83 905.826 1147.28 907.118C1146.74 908.387 1145.97 909.487 1144.97 910.416C1144 911.345 1142.85 912.071 1141.54 912.592C1140.25 913.091 1138.84 913.34 1137.32 913.34ZM1151.31 913V895.082H1155.43L1155.5 900.794L1154.92 899.502C1155.17 898.595 1155.6 897.779 1156.21 897.054C1156.82 896.329 1157.52 895.762 1158.32 895.354C1159.13 894.923 1159.98 894.708 1160.87 894.708C1161.25 894.708 1161.62 894.742 1161.96 894.81C1162.32 894.878 1162.61 894.957 1162.84 895.048L1161.72 899.638C1161.47 899.502 1161.16 899.389 1160.8 899.298C1160.44 899.207 1160.07 899.162 1159.71 899.162C1159.14 899.162 1158.6 899.275 1158.08 899.502C1157.58 899.706 1157.14 900.001 1156.75 900.386C1156.37 900.771 1156.06 901.225 1155.84 901.746C1155.63 902.245 1155.53 902.811 1155.53 903.446V913H1151.31ZM1172.58 913.34C1170.7 913.34 1169.03 912.943 1167.58 912.15C1166.15 911.357 1165.03 910.28 1164.21 908.92C1163.42 907.537 1163.02 905.962 1163.02 904.194C1163.02 902.789 1163.25 901.508 1163.7 900.352C1164.16 899.196 1164.78 898.199 1165.57 897.36C1166.39 896.499 1167.35 895.841 1168.46 895.388C1169.6 894.912 1170.83 894.674 1172.17 894.674C1173.35 894.674 1174.45 894.901 1175.47 895.354C1176.49 895.807 1177.37 896.431 1178.12 897.224C1178.87 897.995 1179.43 898.924 1179.82 900.012C1180.23 901.077 1180.42 902.245 1180.4 903.514L1180.36 904.976H1165.85L1165.06 902.12H1176.86L1176.32 902.698V901.95C1176.25 901.247 1176.02 900.635 1175.64 900.114C1175.25 899.57 1174.75 899.151 1174.14 898.856C1173.55 898.539 1172.9 898.38 1172.17 898.38C1171.06 898.38 1170.12 898.595 1169.35 899.026C1168.6 899.457 1168.03 900.08 1167.65 900.896C1167.26 901.689 1167.07 902.687 1167.07 903.888C1167.07 905.044 1167.31 906.053 1167.78 906.914C1168.28 907.775 1168.97 908.444 1169.86 908.92C1170.76 909.373 1171.82 909.6 1173.02 909.6C1173.86 909.6 1174.63 909.464 1175.33 909.192C1176.03 908.92 1176.79 908.433 1177.61 907.73L1179.68 910.62C1179.07 911.187 1178.37 911.674 1177.58 912.082C1176.81 912.467 1175.99 912.773 1175.13 913C1174.27 913.227 1173.42 913.34 1172.58 913.34ZM1190.19 913.34C1188.71 913.34 1187.38 912.932 1186.18 912.116C1184.97 911.3 1184.01 910.189 1183.29 908.784C1182.56 907.379 1182.2 905.781 1182.2 903.99C1182.2 902.199 1182.56 900.601 1183.29 899.196C1184.01 897.791 1185 896.691 1186.24 895.898C1187.49 895.105 1188.9 894.708 1190.46 894.708C1191.37 894.708 1192.19 894.844 1192.94 895.116C1193.69 895.365 1194.35 895.728 1194.91 896.204C1195.48 896.68 1195.95 897.224 1196.31 897.836C1196.69 898.448 1196.95 899.105 1197.09 899.808L1196.17 899.57V895.082H1200.39V913H1196.14V908.716L1197.12 908.546C1196.97 909.158 1196.67 909.759 1196.24 910.348C1195.83 910.915 1195.31 911.425 1194.68 911.878C1194.06 912.309 1193.37 912.66 1192.6 912.932C1191.85 913.204 1191.05 913.34 1190.19 913.34ZM1191.34 909.634C1192.32 909.634 1193.18 909.396 1193.93 908.92C1194.68 908.444 1195.25 907.787 1195.66 906.948C1196.09 906.087 1196.31 905.101 1196.31 903.99C1196.31 902.902 1196.09 901.939 1195.66 901.1C1195.25 900.261 1194.68 899.604 1193.93 899.128C1193.18 898.652 1192.32 898.414 1191.34 898.414C1190.37 898.414 1189.51 898.652 1188.76 899.128C1188.03 899.604 1187.47 900.261 1187.06 901.1C1186.65 901.939 1186.45 902.902 1186.45 903.99C1186.45 905.101 1186.65 906.087 1187.06 906.948C1187.47 907.787 1188.03 908.444 1188.76 908.92C1189.51 909.396 1190.37 909.634 1191.34 909.634ZM1206.49 913V890.526H1210.68V913H1206.49ZM1202.96 898.958V895.082H1214.59V898.958H1202.96ZM1231.91 913V893.28H1225.11V889.2H1243.34V893.28H1236.33V913H1231.91ZM1251.05 913.34C1249.26 913.34 1247.66 912.943 1246.26 912.15C1244.85 911.334 1243.74 910.223 1242.93 908.818C1242.11 907.413 1241.7 905.815 1241.7 904.024C1241.7 902.233 1242.11 900.635 1242.93 899.23C1243.74 897.825 1244.85 896.725 1246.26 895.932C1247.66 895.116 1249.26 894.708 1251.05 894.708C1252.82 894.708 1254.41 895.116 1255.81 895.932C1257.22 896.725 1258.32 897.825 1259.11 899.23C1259.93 900.635 1260.33 902.233 1260.33 904.024C1260.33 905.815 1259.93 907.413 1259.11 908.818C1258.32 910.223 1257.22 911.334 1255.81 912.15C1254.41 912.943 1252.82 913.34 1251.05 913.34ZM1251.05 909.634C1252.03 909.634 1252.89 909.385 1253.64 908.886C1254.41 908.387 1255.01 907.719 1255.44 906.88C1255.89 906.041 1256.11 905.089 1256.08 904.024C1256.11 902.936 1255.89 901.973 1255.44 901.134C1255.01 900.295 1254.41 899.638 1253.64 899.162C1252.89 898.663 1252.03 898.414 1251.05 898.414C1250.08 898.414 1249.19 898.663 1248.4 899.162C1247.63 899.638 1247.03 900.307 1246.6 901.168C1246.17 902.007 1245.95 902.959 1245.95 904.024C1245.95 905.089 1246.17 906.041 1246.6 906.88C1247.03 907.719 1247.63 908.387 1248.4 908.886C1249.19 909.385 1250.08 909.634 1251.05 909.634ZM1271.45 920.82C1270.12 920.82 1268.78 920.616 1267.44 920.208C1266.13 919.8 1265.06 919.267 1264.25 918.61L1265.74 915.516C1266.22 915.856 1266.75 916.151 1267.34 916.4C1267.93 916.649 1268.55 916.842 1269.21 916.978C1269.89 917.114 1270.56 917.182 1271.22 917.182C1272.42 917.182 1273.41 916.989 1274.21 916.604C1275.02 916.241 1275.64 915.675 1276.04 914.904C1276.45 914.156 1276.66 913.215 1276.66 912.082V908.784L1277.27 909.022C1277.13 909.725 1276.76 910.393 1276.15 911.028C1275.53 911.663 1274.76 912.184 1273.83 912.592C1272.9 912.977 1271.95 913.17 1270.98 913.17C1269.28 913.17 1267.77 912.773 1266.46 911.98C1265.16 911.187 1264.13 910.11 1263.36 908.75C1262.61 907.367 1262.24 905.781 1262.24 903.99C1262.24 902.199 1262.61 900.613 1263.36 899.23C1264.11 897.825 1265.13 896.725 1266.42 895.932C1267.74 895.116 1269.21 894.708 1270.84 894.708C1271.52 894.708 1272.18 894.787 1272.81 894.946C1273.45 895.105 1274.03 895.331 1274.55 895.626C1275.09 895.921 1275.58 896.249 1276.01 896.612C1276.44 896.975 1276.79 897.36 1277.06 897.768C1277.34 898.176 1277.51 898.573 1277.57 898.958L1276.69 899.23L1276.76 895.082H1280.87V911.776C1280.87 913.227 1280.66 914.507 1280.23 915.618C1279.79 916.729 1279.17 917.669 1278.36 918.44C1277.54 919.233 1276.55 919.823 1275.4 920.208C1274.24 920.616 1272.93 920.82 1271.45 920.82ZM1271.62 909.6C1272.64 909.6 1273.54 909.362 1274.31 908.886C1275.1 908.41 1275.71 907.753 1276.15 906.914C1276.58 906.075 1276.79 905.112 1276.79 904.024C1276.79 902.913 1276.56 901.939 1276.11 901.1C1275.68 900.239 1275.08 899.57 1274.31 899.094C1273.54 898.618 1272.64 898.38 1271.62 898.38C1270.6 898.38 1269.71 898.629 1268.94 899.128C1268.17 899.604 1267.55 900.273 1267.1 901.134C1266.67 901.973 1266.46 902.936 1266.46 904.024C1266.46 905.089 1266.67 906.053 1267.1 906.914C1267.55 907.753 1268.17 908.41 1268.94 908.886C1269.71 909.362 1270.6 909.6 1271.62 909.6ZM1293.43 913.34C1291.54 913.34 1289.88 912.943 1288.43 912.15C1287 911.357 1285.88 910.28 1285.06 908.92C1284.27 907.537 1283.87 905.962 1283.87 904.194C1283.87 902.789 1284.1 901.508 1284.55 900.352C1285.01 899.196 1285.63 898.199 1286.42 897.36C1287.24 896.499 1288.2 895.841 1289.31 895.388C1290.45 894.912 1291.68 894.674 1293.02 894.674C1294.2 894.674 1295.3 894.901 1296.32 895.354C1297.34 895.807 1298.22 896.431 1298.97 897.224C1299.72 897.995 1300.28 898.924 1300.67 900.012C1301.08 901.077 1301.27 902.245 1301.25 903.514L1301.21 904.976H1286.69L1285.91 902.12H1297.71L1297.17 902.698V901.95C1297.1 901.247 1296.87 900.635 1296.49 900.114C1296.1 899.57 1295.6 899.151 1294.99 898.856C1294.4 898.539 1293.74 898.38 1293.02 898.38C1291.91 898.38 1290.97 898.595 1290.2 899.026C1289.45 899.457 1288.88 900.08 1288.5 900.896C1288.11 901.689 1287.92 902.687 1287.92 903.888C1287.92 905.044 1288.16 906.053 1288.63 906.914C1289.13 907.775 1289.82 908.444 1290.71 908.92C1291.61 909.373 1292.67 909.6 1293.87 909.6C1294.71 909.6 1295.48 909.464 1296.18 909.192C1296.88 908.92 1297.64 908.433 1298.46 907.73L1300.53 910.62C1299.92 911.187 1299.22 911.674 1298.42 912.082C1297.65 912.467 1296.84 912.773 1295.98 913C1295.11 913.227 1294.26 913.34 1293.43 913.34ZM1306.21 913V890.526H1310.39V913H1306.21ZM1302.67 898.958V895.082H1314.3V898.958H1302.67ZM1316.8 913V887.84H1320.95V898.754L1320.17 899.162C1320.4 898.346 1320.84 897.609 1321.5 896.952C1322.15 896.272 1322.94 895.728 1323.84 895.32C1324.75 894.912 1325.68 894.708 1326.63 894.708C1327.99 894.708 1329.12 894.98 1330.03 895.524C1330.96 896.068 1331.65 896.884 1332.1 897.972C1332.58 899.06 1332.82 900.42 1332.82 902.052V913H1328.64V902.358C1328.64 901.451 1328.51 900.703 1328.26 900.114C1328.01 899.502 1327.63 899.06 1327.11 898.788C1326.59 898.493 1325.95 898.357 1325.2 898.38C1324.59 898.38 1324.02 898.482 1323.5 898.686C1323 898.867 1322.56 899.139 1322.18 899.502C1321.81 899.842 1321.52 900.239 1321.29 900.692C1321.09 901.145 1320.99 901.644 1320.99 902.188V913H1318.91C1318.5 913 1318.12 913 1317.76 913C1317.42 913 1317.1 913 1316.8 913ZM1345.24 913.34C1343.36 913.34 1341.69 912.943 1340.24 912.15C1338.82 911.357 1337.69 910.28 1336.88 908.92C1336.08 907.537 1335.69 905.962 1335.69 904.194C1335.69 902.789 1335.91 901.508 1336.37 900.352C1336.82 899.196 1337.44 898.199 1338.24 897.36C1339.05 896.499 1340.02 895.841 1341.13 895.388C1342.26 894.912 1343.5 894.674 1344.83 894.674C1346.01 894.674 1347.11 894.901 1348.13 895.354C1349.15 895.807 1350.04 896.431 1350.78 897.224C1351.53 897.995 1352.1 898.924 1352.48 900.012C1352.89 901.077 1353.08 902.245 1353.06 903.514L1353.03 904.976H1338.51L1337.73 902.12H1349.53L1348.98 902.698V901.95C1348.91 901.247 1348.69 900.635 1348.3 900.114C1347.92 899.57 1347.42 899.151 1346.81 898.856C1346.22 898.539 1345.56 898.38 1344.83 898.38C1343.72 898.38 1342.78 898.595 1342.01 899.026C1341.26 899.457 1340.7 900.08 1340.31 900.896C1339.93 901.689 1339.73 902.687 1339.73 903.888C1339.73 905.044 1339.97 906.053 1340.45 906.914C1340.95 907.775 1341.64 908.444 1342.52 908.92C1343.43 909.373 1344.48 909.6 1345.68 909.6C1346.52 909.6 1347.29 909.464 1348 909.192C1348.7 908.92 1349.46 908.433 1350.27 907.73L1352.35 910.62C1351.74 911.187 1351.03 911.674 1350.24 912.082C1349.47 912.467 1348.65 912.773 1347.79 913C1346.93 913.227 1346.08 913.34 1345.24 913.34ZM1356.09 913V895.082H1360.2L1360.27 900.794L1359.69 899.502C1359.94 898.595 1360.37 897.779 1360.98 897.054C1361.59 896.329 1362.3 895.762 1363.09 895.354C1363.91 894.923 1364.76 894.708 1365.64 894.708C1366.02 894.708 1366.39 894.742 1366.73 894.81C1367.09 894.878 1367.38 894.957 1367.61 895.048L1366.49 899.638C1366.24 899.502 1365.93 899.389 1365.57 899.298C1365.21 899.207 1364.85 899.162 1364.48 899.162C1363.92 899.162 1363.37 899.275 1362.85 899.502C1362.35 899.706 1361.91 900.001 1361.53 900.386C1361.14 900.771 1360.83 901.225 1360.61 901.746C1360.4 902.245 1360.3 902.811 1360.3 903.446V913H1356.09Z" fill="white"/>
<defs>
<filter id="filter0_f_120_270" x="472.385" y="66.2921" width="1732" height="1725.69" filterUnits="userSpaceOnUse" color-interpolation-filters="sRGB">
<feFlood flood-opacity="0" result="BackgroundImageFix"/>
<feBlend mode="normal" in="SourceGraphic" in2="BackgroundImageFix" result="shape"/>
<feGaussianBlur stdDeviation="250" result="effect1_foregroundBlur_120_270"/>
</filter>
</defs>
</svg>
