<svg width="67" height="29" viewBox="0 0 67 29" fill="none" xmlns="http://www.w3.org/2000/svg">
<path d="M0 21.3001V0.569824H8.49943C10.0197 0.569824 11.3918 0.826486 12.6159 1.33981C13.8597 1.83339 14.9258 2.54414 15.8143 3.47207C16.7225 4.38025 17.4135 5.46613 17.8873 6.72969C18.3611 7.99325 18.5981 9.39502 18.5981 10.935C18.5981 12.4552 18.3611 13.857 17.8873 15.1403C17.4135 16.4038 16.7323 17.4996 15.8439 18.4275C14.9554 19.3357 13.8893 20.0465 12.6455 20.5598C11.4017 21.0534 10.0197 21.3001 8.49943 21.3001H0ZM4.44221 18.0721L3.96838 17.3022H8.35136C9.2398 17.3022 10.0394 17.1541 10.7502 16.8579C11.4609 16.542 12.0631 16.1176 12.5567 15.5845C13.07 15.0317 13.455 14.3604 13.7116 13.5707C13.9683 12.781 14.0966 11.9024 14.0966 10.935C14.0966 9.96757 13.9683 9.09887 13.7116 8.32889C13.455 7.53916 13.07 6.86789 12.5567 6.31508C12.0631 5.76228 11.4609 5.3378 10.7502 5.04165C10.0394 4.72576 9.2398 4.56782 8.35136 4.56782H3.87953L4.44221 3.85706V18.0721Z" fill="white"/>
<path d="M21.4314 21.3001V5.63394H25.4886L25.6366 10.6685L24.9259 9.63194C25.1628 8.82247 25.5478 8.09197 26.0809 7.44044C26.6139 6.76918 27.2358 6.24598 27.9466 5.87086C28.6771 5.49574 29.4372 5.30818 30.2269 5.30818C30.5626 5.30818 30.8883 5.3378 31.2042 5.39703C31.5201 5.45626 31.7866 5.52536 32.0038 5.60433L30.8785 10.2242C30.6415 10.1058 30.3553 10.0071 30.0196 9.92808C29.684 9.82937 29.3385 9.78001 28.9831 9.78001C28.5093 9.78001 28.0651 9.86885 27.6504 10.0465C27.2556 10.2045 26.9101 10.4414 26.6139 10.7573C26.3178 11.0534 26.0809 11.4088 25.9032 11.8234C25.7452 12.238 25.6663 12.6921 25.6663 13.1857V21.3001H21.4314Z" fill="white"/>
<path d="M50.802 27.8154V5.63394H54.8592L54.9777 9.1581L54.2077 8.89157C54.3459 8.25979 54.6815 7.67736 55.2146 7.1443C55.7674 6.61123 56.4485 6.17688 57.258 5.84125C58.0675 5.50561 58.9164 5.3378 59.8049 5.3378C61.1672 5.3378 62.3715 5.69317 63.4179 6.40393C64.484 7.09494 65.3231 8.05248 65.9351 9.27656C66.5669 10.4809 66.8828 11.8728 66.8828 13.4522C66.8828 15.0119 66.5768 16.4038 65.9648 17.6279C65.3527 18.852 64.5136 19.8194 63.4475 20.5302C62.3814 21.2212 61.1672 21.5667 59.8049 21.5667C58.8967 21.5667 58.028 21.3989 57.1988 21.0632C56.3893 20.7078 55.6983 20.2439 55.1258 19.6713C54.5532 19.0988 54.1978 18.4867 54.0596 17.8352L55.0369 17.4206V27.8154H50.802ZM58.8572 17.9537C59.6272 17.9537 60.3083 17.7661 60.9006 17.391C61.4929 17.0159 61.9569 16.4927 62.2925 15.8214C62.6282 15.1304 62.796 14.3407 62.796 13.4522C62.796 12.5638 62.6282 11.7839 62.2925 11.1127C61.9569 10.4414 61.4929 9.91821 60.9006 9.54309C60.3281 9.16797 59.6469 8.98041 58.8572 8.98041C58.0675 8.98041 57.3765 9.16797 56.7842 9.54309C56.1919 9.89847 55.7279 10.4217 55.3923 11.1127C55.0567 11.7839 54.8888 12.5638 54.8888 13.4522C54.8888 14.3407 55.0567 15.1304 55.3923 15.8214C55.7279 16.4927 56.1919 17.0159 56.7842 17.391C57.3765 17.7661 58.0675 17.9537 58.8572 17.9537Z" fill="white"/>
<path d="M38.6893 29C37.0901 29 35.6588 28.6545 34.3952 27.9635C33.1514 27.2527 32.1642 26.2853 31.4337 25.0612C30.723 23.8371 30.3676 22.4354 30.3676 20.8559C30.3676 19.2765 30.723 17.8846 31.4337 16.6802C32.1642 15.4562 33.1514 14.4888 34.3952 13.778C35.6588 13.0672 37.0901 12.7119 38.6893 12.7119C40.2688 12.7119 41.6804 13.0672 42.9243 13.778C44.1878 14.4888 45.175 15.4562 45.8857 16.6802C46.5965 17.8846 46.9519 19.2765 46.9519 20.8559C46.9519 22.4354 46.5965 23.8371 45.8857 25.0612C45.175 26.2853 44.1878 27.2527 42.9243 27.9635C41.6804 28.6545 40.2688 29 38.6893 29ZM38.6893 25.3277C39.4593 25.3277 40.1503 25.1402 40.7624 24.7651C41.3744 24.3702 41.8483 23.8371 42.1839 23.1659C42.5393 22.4749 42.7169 21.7049 42.7169 20.8559C42.7169 19.9872 42.5393 19.2172 42.1839 18.546C41.8483 17.855 41.3744 17.3219 40.7624 16.9468C40.1503 16.5519 39.4593 16.3545 38.6893 16.3545C37.8996 16.3545 37.1987 16.5519 36.5867 16.9468C35.9747 17.3416 35.491 17.8747 35.1356 18.546C34.7802 19.2172 34.6124 19.9872 34.6321 20.8559C34.6124 21.7049 34.7802 22.4749 35.1356 23.1659C35.491 23.8371 35.9747 24.3702 36.5867 24.7651C37.1987 25.1402 37.8996 25.3277 38.6893 25.3277Z" fill="white"/>
</svg>
